<svg fill="#d8caca" height="256px" width="256px" version="1.1" id="Capa_1" xmlns="http://www.w3.org/2000/svg"
     viewBox="0 0 297 297" xml:space="preserve" stroke="#d8caca"><g id="SVGRepo_bgCarrier" stroke-width="0"></g><g id="SVGRepo_tracerCarrier" stroke-linecap="round" stroke-linejoin="round"></g><g id="SVGRepo_iconCarrier"> <g> <g> <path d="M242.158,110.922l-56.096,0.008l0.009-56.121c0-2.775-1.101-5.436-3.063-7.398c-1.962-1.961-4.623-3.063-7.397-3.063 l-54.193,0.008c-5.774,0.001-10.454,4.682-10.456,10.456l-0.009,56.129l-56.104,0.007c-5.774,0.001-10.455,4.682-10.456,10.456 l-0.01,54.215c0,2.775,1.102,5.435,3.063,7.396c1.961,1.961,4.622,3.063,7.396,3.063l56.099-0.007l-0.008,56.119 c0,2.775,1.103,5.436,3.063,7.398c1.961,1.961,4.622,3.063,7.394,3.063c0.002,0,0.003,0,0.003,0l54.192-0.01 c5.774-0.001,10.454-4.682,10.456-10.456l0.008-56.126l56.106-0.009c5.774-0.001,10.454-4.682,10.455-10.457l0.008-54.213 c0-2.773-1.103-5.434-3.064-7.396C247.592,112.022,244.932,110.922,242.158,110.922z"></path> </g> <g> <path d="M263.535,0H33.465C15.013,0,0,15.013,0,33.465v230.07C0,281.987,15.013,297,33.465,297h230.07 C281.987,297,297,281.987,297,263.535V33.465C297,15.013,281.987,0,263.535,0z M267.251,175.596 c-0.002,13.835-11.26,25.093-25.095,25.095l-41.47,0.008l-0.006,41.488c-0.002,13.835-11.26,25.093-25.094,25.095l-54.198,0.01 c-6.703,0-13.006-2.61-17.749-7.352c-4.738-4.742-7.348-11.044-7.348-17.75l0.006-41.475l-41.456,0.005 c-6.702,0-13.005-2.608-17.748-7.351c-4.741-4.74-7.352-11.044-7.352-17.752l0.009-54.215 c0.003-13.835,11.261-25.092,25.096-25.094l41.468-0.006l0.007-41.492c0.002-13.834,11.26-25.092,25.095-25.094l54.193-0.009 c0.001,0,0.001,0,0.001,0c6.705,0,13.007,2.609,17.751,7.352c4.74,4.74,7.351,11.044,7.351,17.752l-0.007,41.477l41.453-0.007 c6.704,0,13.008,2.61,17.752,7.355c4.738,4.741,7.348,11.043,7.348,17.748L267.251,175.596z"></path> </g> </g> </g></svg>