<svg width="444" height="444" viewBox="0 0 444 444" fill="none" xmlns="http://www.w3.org/2000/svg">
    <circle cx="222" cy="222" r="222" fill="#FCFAFF"/>
    <circle cx="221.999" cy="222" r="177.038" fill="#F8F0FF"/>
    <circle cx="222.002" cy="222" r="132.076" fill="#F4E9FF"/>
    <circle opacity="0.7" cx="221.998" cy="222" r="89.924" fill="#F0E0FF"/>
    <path d="M100.099 318.154C102.039 309.616 105.091 301.308 109.351 293.646C113.25 286.627 118.144 280.202 123.859 274.563C129.211 269.281 135.322 264.747 141.964 261.214C148.606 257.681 155.3 255.324 162.442 253.963C169.435 252.632 176.623 252.338 183.689 253.227C191.618 254.228 199.382 256.572 206.662 259.851C214.298 263.291 221.441 267.869 227.815 273.295C234.155 278.688 239.753 285.022 244.229 292.043C248.705 299.065 252.212 306.771 254.168 314.854C256.191 323.197 256.749 331.888 255.726 340.417C254.704 348.945 251.83 357.773 248.138 365.833C244.445 373.893 239.835 381.185 234.283 387.901C228.905 394.4 222.635 400.186 215.61 404.872C208.586 409.558 201.338 412.84 193.437 414.761C185.301 416.739 176.855 417.042 168.597 415.681C160.289 414.315 152.423 411.097 144.943 407.312C137.972 403.782 131.362 399.552 125.318 394.595C119.373 389.717 114.047 384.094 109.647 377.783C105.184 371.38 101.788 364.231 99.6979 356.706C97.4264 348.518 96.7223 339.923 97.3882 331.458C97.5666 329.203 97.8374 326.957 98.1846 324.72C98.2706 324.159 98.3407 323.583 98.465 323.028C98.5892 322.474 98.876 321.926 99.1053 321.397C99.3347 320.868 99.5513 320.378 99.7807 319.871C100.01 319.365 100.408 318.801 100.529 318.272C100.59 318.008 100.998 318.119 100.937 318.384C100.826 318.874 100.95 319.565 100.956 320.066C100.966 320.681 100.982 321.295 101.004 321.91C101.049 323.121 100.889 324.22 100.711 325.415C100.38 327.648 100.147 329.897 100.007 332.149C99.7425 336.377 99.8126 340.627 100.265 344.839C101.084 352.481 103.256 360.006 106.656 366.9C109.947 373.575 114.286 379.675 119.412 385.066C124.573 390.494 130.444 395.197 136.755 399.22C143.146 403.295 149.992 406.783 157.084 409.466C164.892 412.416 173.198 413.866 181.545 413.47C189.35 413.101 197.072 411.113 204.164 407.844C211.405 404.506 218.035 399.931 223.884 394.524C230.014 388.857 235.302 382.326 239.692 375.231C244.162 368.003 247.708 360.216 250.196 352.089C252.684 343.962 253.713 335.469 253.117 326.931C252.556 318.919 250.578 310.922 247.405 303.547C244.213 296.131 239.845 289.233 234.557 283.133C229.23 276.984 223.017 271.571 216.136 267.226C209.255 262.88 201.65 259.465 193.749 257.27C186.859 255.355 179.805 254.387 172.647 254.664C165.663 254.935 158.747 256.321 152.165 258.659C145.357 261.077 138.922 264.496 133.079 268.742C126.924 273.218 121.46 278.634 116.879 284.71C111.938 291.26 107.975 298.549 105.076 306.22C103.562 310.225 102.336 314.331 101.367 318.501C101.176 319.327 99.9113 318.976 100.099 318.151V318.154Z"
          fill="black"/>
    <path d="M100.192 325.66C100.524 326.313 100.715 327.02 100.948 327.715C101.18 328.409 101.406 329.123 101.636 329.827C102.085 331.194 102.588 332.541 103.037 333.908C103.929 336.61 104.907 339.283 105.975 341.917C108.112 347.187 110.613 352.262 113.34 357.25C114.137 358.71 114.984 360.14 115.8 361.586C116.615 363.033 117.6 364.559 118.412 366.085C118.543 366.33 118.205 366.633 118.008 366.397C117.03 365.234 116.173 363.947 115.303 362.701C114.439 361.465 113.63 360.194 112.837 358.913C111.301 356.429 109.9 353.87 108.584 351.261C106 346.135 103.837 340.824 102.034 335.374C101.521 333.819 101.088 332.242 100.674 330.659C100.47 329.878 100.259 329.097 100.084 328.311C99.909 327.524 99.6637 326.657 99.6254 325.813C99.6127 325.517 100.059 325.389 100.196 325.66H100.192Z"
          fill="black"/>
    <path d="M103.821 327.912C104.203 328.422 104.391 329.05 104.636 329.633C104.882 330.216 105.118 330.76 105.363 331.321C105.879 332.494 106.424 333.653 106.962 334.813C108.029 337.103 109.16 339.362 110.342 341.599C112.741 346.132 115.334 350.567 117.937 354.985C119.419 357.502 120.913 360.016 122.286 362.596C122.439 362.88 122.044 363.1 121.859 362.845C120.346 360.733 118.912 358.56 117.526 356.362C116.134 354.154 114.736 351.943 113.42 349.687C110.839 345.259 108.377 340.758 106.182 336.125C105.567 334.829 104.993 333.516 104.436 332.194C104.159 331.538 103.891 330.878 103.627 330.216C103.362 329.553 103.037 328.874 102.964 328.145C102.913 327.642 103.579 327.594 103.818 327.912H103.821Z"
          fill="black"/>
    <path d="M111.009 333.239C111.748 333.793 112.111 334.695 112.548 335.491C112.984 336.288 113.446 337.154 113.886 337.992C114.781 339.697 115.654 341.414 116.53 343.128C118.317 346.619 120.114 350.102 122.061 353.507C123.138 355.39 124.281 357.244 125.495 359.041C125.724 359.379 125.189 359.802 124.922 359.484C119.942 353.459 116.712 346.259 113.201 339.337C112.71 338.371 112.213 337.406 111.707 336.447C111.229 335.546 110.522 334.612 110.41 333.583C110.378 333.296 110.78 333.064 111.012 333.239H111.009Z"
          fill="black"/>
    <path d="M117.392 338.034C118.09 339.072 118.561 340.245 119.109 341.369C119.657 342.494 120.202 343.596 120.75 344.711C121.865 346.986 123.028 349.235 124.242 351.456C126.688 355.944 129.256 360.366 131.958 364.709C133.474 367.146 135.07 369.532 136.666 371.918C136.819 372.147 136.456 372.434 136.278 372.217C133.041 368.254 130.094 364.033 127.383 359.7C124.672 355.368 122.203 350.822 119.947 346.196C119.326 344.921 118.727 343.641 118.163 342.341C117.599 341.041 116.94 339.738 116.621 338.355C116.51 337.881 117.128 337.632 117.395 338.031L117.392 338.034Z"
          fill="black"/>
    <path d="M123.451 342.395C124.305 343.523 124.93 344.804 125.627 346.03C126.325 347.257 127.061 348.493 127.765 349.729C129.189 352.227 130.626 354.721 132.098 357.19C135.067 362.169 138.065 367.13 141.11 372.061C142.808 374.814 144.471 377.605 145.962 380.475C146.096 380.736 145.746 380.927 145.577 380.701C142.12 376.037 139.103 371.048 136.048 366.12C132.993 361.191 130.056 356.237 127.252 351.182C126.472 349.777 125.739 348.349 125.009 346.916C124.28 345.482 123.474 344.096 123.002 342.58C122.913 342.293 123.295 342.182 123.455 342.389L123.451 342.395Z"
          fill="black"/>
    <path d="M130.391 346.247C130.726 346.511 130.856 346.913 131.041 347.288C131.239 347.687 131.436 348.082 131.637 348.477C132.029 349.251 132.398 350.038 132.784 350.815C133.577 352.408 134.402 353.982 135.259 355.54C136.983 358.678 138.779 361.768 140.611 364.839C141.631 366.55 142.682 368.242 143.714 369.943C143.931 370.303 143.408 370.577 143.166 370.265C138.818 364.581 135.224 358.327 132.178 351.86C131.758 350.968 131.331 350.076 130.955 349.165C130.767 348.709 130.585 348.254 130.407 347.795C130.229 347.336 129.967 346.89 130.012 346.403C130.031 346.199 130.238 346.122 130.394 346.244L130.391 346.247Z"
          fill="black"/>
    <path d="M137.063 350.936C137.996 352.176 138.735 353.545 139.5 354.896C140.264 356.247 141.051 357.572 141.857 358.891C143.504 361.59 145.19 364.266 146.904 366.923C150.363 372.288 153.81 377.668 156.984 383.209C157.86 384.738 158.713 386.28 159.532 387.841C160.351 389.402 161.179 390.972 161.791 392.613C161.829 392.715 161.673 392.772 161.619 392.686C160.794 391.345 160.067 389.934 159.29 388.561C158.513 387.188 157.719 385.843 156.901 384.502C155.238 381.778 153.495 379.105 151.727 376.448C148.194 371.153 144.578 365.903 141.335 360.424C140.449 358.929 139.586 357.423 138.754 355.897C137.923 354.371 137.072 352.816 136.585 351.137C136.499 350.834 136.891 350.716 137.056 350.936H137.063Z"
          fill="black"/>
    <path d="M144.685 355.823C144.762 355.852 144.845 355.884 144.918 355.925C145.135 356.046 144.714 355.874 144.908 355.935C145.036 355.973 145.16 356.04 145.211 356.065C145.612 356.263 145.826 356.585 146.084 356.941C146.67 357.744 147.24 358.56 147.792 359.385C149.155 361.43 150.324 363.606 151.56 365.725C153.16 368.465 154.816 371.169 156.425 373.906C157.996 376.579 159.605 379.229 161.264 381.851C163.125 384.785 165.071 387.659 166.973 390.565C167.133 390.807 166.757 391.106 166.569 390.877C164.613 388.522 162.806 386.018 161.057 383.511C159.299 380.988 157.594 378.43 155.925 375.849C154.208 373.189 152.589 370.468 150.981 367.741C150.181 366.384 149.384 365.024 148.594 363.66C148.059 362.74 147.578 361.793 147.024 360.885C146.438 359.927 145.82 358.987 145.186 358.06C144.937 357.697 144.529 357.282 144.44 356.843C144.427 356.785 144.421 356.652 144.418 356.639C144.431 356.709 144.376 356.518 144.376 356.537C144.357 356.473 144.354 356.409 144.367 356.346C144.38 356.225 144.383 356.26 144.373 356.451C144.373 356.451 144.319 356.231 144.309 356.202C144.239 355.992 144.469 355.747 144.685 355.826V355.823Z"
          fill="black"/>
    <path d="M149.154 357.591C150.211 358.264 150.992 359.315 151.801 360.261C152.668 361.274 153.505 362.306 154.318 363.364C155.936 365.47 157.475 367.636 158.963 369.838C162.008 374.352 164.86 379.006 167.494 383.772C168.941 386.385 170.416 388.994 171.7 391.692C171.881 392.078 171.378 392.371 171.133 392.024C169.619 389.889 168.265 387.637 166.879 385.413C165.494 383.189 164.05 380.803 162.617 378.513C159.769 373.963 156.901 369.433 153.69 365.129C152.836 363.985 151.96 362.851 151.068 361.736C150.619 361.172 150.16 360.615 149.695 360.064C149.23 359.512 148.759 358.984 148.418 358.327C148.182 357.872 148.676 357.282 149.157 357.588L149.154 357.591Z"
          fill="black"/>
    <path d="M157.747 362.399C159.817 364.431 161.401 366.954 162.978 369.376C164.536 371.771 166.049 374.199 167.511 376.652C168.317 378.006 169.136 379.35 169.987 380.679C170.407 381.335 169.384 381.912 168.951 381.284C167.368 378.997 165.858 376.655 164.411 374.279C162.924 371.838 161.42 369.401 159.801 367.044C158.868 365.683 157.896 364.358 157.03 362.953C156.753 362.507 157.38 362.036 157.75 362.399H157.747Z"
          fill="black"/>
    <path d="M165.615 367.279C166.514 367.566 167.234 368.366 167.89 369.013C168.619 369.726 169.263 370.535 169.897 371.335C171.213 372.992 172.442 374.722 173.577 376.509C175.899 380.169 178.062 383.928 180.311 387.634C181.541 389.657 182.831 391.657 184.179 393.604C184.431 393.967 183.87 394.394 183.57 394.072C180.652 390.95 178.425 387.296 176.262 383.632C174.089 379.959 171.958 376.235 169.473 372.759C168.807 371.826 168.087 370.94 167.377 370.042C167.023 369.596 166.67 369.146 166.31 368.707C165.988 368.315 165.666 367.885 165.488 367.41C165.459 367.334 165.545 367.257 165.618 367.279H165.615Z"
          fill="black"/>
    <path d="M173.899 370.72C174.167 370.969 174.454 371.182 174.718 371.437C174.982 371.692 175.199 371.985 175.425 372.272C175.868 372.839 176.244 373.45 176.626 374.059C177.404 375.295 178.168 376.537 178.91 377.796C180.411 380.348 181.902 382.903 183.645 385.305C183.858 385.598 183.696 386.05 183.406 386.222C183.062 386.423 182.711 386.27 182.488 385.983C180.682 383.639 179.063 381.138 177.534 378.605C176.779 377.356 176.069 376.082 175.339 374.817C174.986 374.205 174.616 373.603 174.307 372.969C174.141 372.632 173.976 372.303 173.851 371.95C173.734 371.615 173.654 371.274 173.533 370.943C173.453 370.72 173.753 370.586 173.906 370.727L173.899 370.72Z"
          fill="black"/>
    <path d="M183.222 375.773C184.353 376.993 185.206 378.388 186.047 379.822C186.93 381.326 187.765 382.855 188.593 384.387C190.275 387.49 191.964 390.603 193.783 393.629C194.805 395.331 195.863 397.022 196.975 398.666C197.204 399.007 196.679 399.418 196.401 399.109C194.053 396.461 192.034 393.476 190.288 390.402C188.539 387.325 186.866 384.199 185.245 381.052C184.388 379.385 183.489 377.754 182.846 375.989C182.769 375.779 183.072 375.614 183.218 375.773H183.222Z"
          fill="black"/>
    <path d="M191.472 379.953C193.483 381.647 194.735 384.139 196.018 386.394C197.302 388.65 198.574 391.001 199.87 393.295C200.59 394.566 201.281 395.856 202.021 397.118C202.253 397.516 201.67 397.838 201.412 397.475C198.395 393.186 195.85 388.589 192.998 384.196C192.186 382.944 191.425 381.689 190.886 380.297C190.746 379.937 191.237 379.752 191.476 379.953H191.472Z"
          fill="black"/>
    <path d="M197.979 382.116C198.329 382.434 198.686 382.763 198.998 383.119C199.374 383.549 199.689 384.05 200.014 384.521C200.728 385.56 201.305 386.713 201.9 387.822C203.162 390.16 204.443 392.524 205.497 394.967C205.985 396.095 206.51 397.201 207.001 398.325C207.112 398.577 206.784 398.918 206.577 398.653C205.137 396.821 204.038 394.716 202.92 392.68C201.642 390.351 200.521 387.946 199.192 385.642C198.59 384.604 198.109 383.508 197.555 382.447C197.412 382.173 197.749 381.912 197.979 382.119V382.116Z"
          fill="black"/>
    <path d="M204.854 385.015C206.119 386.197 206.985 387.774 207.775 389.29C208.702 391.071 209.598 392.881 210.445 394.7C210.834 395.531 211.257 396.34 211.652 397.166C211.774 397.42 211.464 397.698 211.248 397.478C210.69 396.92 210.295 396.267 209.897 395.592C209.406 394.76 208.98 393.906 208.559 393.04C207.686 391.234 206.794 389.446 205.835 387.685C205.418 386.917 204.965 386.146 204.373 385.496C204.077 385.171 204.532 384.712 204.854 385.015Z"
          fill="black"/>
    <path d="M211.65 387.971C212.625 389.379 213.351 390.915 214.119 392.438C214.845 393.881 215.46 395.401 216.282 396.793C216.409 397.006 216.107 397.255 215.932 397.064C215.46 396.551 215.1 395.968 214.75 395.369C214.281 394.563 213.832 393.747 213.421 392.909C213.01 392.071 212.587 391.183 212.16 390.326C211.819 389.637 211.551 388.917 211.204 388.233C211.051 387.933 211.462 387.697 211.65 387.971Z"
          fill="black"/>
    <path d="M99.9572 334.752C100.066 337.623 100.696 340.388 101.56 343.118C102.423 345.848 103.643 348.566 105.029 351.127C106.459 353.775 108.005 356.343 109.687 358.834C111.369 361.325 113.147 363.705 114.931 366.104C115.893 367.397 116.887 368.672 117.826 369.984C118.766 371.297 119.649 372.482 120.388 373.836C120.547 374.126 120.168 374.432 119.926 374.193C117.916 372.195 116.218 369.854 114.5 367.608C112.669 365.209 110.901 362.762 109.218 360.255C105.87 355.266 102.872 349.993 101.146 344.205C100.234 341.149 99.8075 337.938 99.9127 334.752C99.9127 334.724 99.9572 334.724 99.9604 334.752H99.9572Z"
          fill="black"/>
    <path d="M101.635 350.589C103.428 354.297 105.203 358.031 107.315 361.57C109.427 365.11 111.832 368.42 114.505 371.552C116.038 373.348 117.716 375.018 119.239 376.818C119.51 377.136 119.166 377.672 118.771 377.426C116.958 376.314 115.34 374.83 113.862 373.307C112.383 371.784 111.039 370.15 109.774 368.439C107.283 365.068 105.126 361.405 103.521 357.528C102.603 355.307 101.835 353.068 101.316 350.72C101.275 350.535 101.545 350.395 101.638 350.583L101.635 350.589Z"
          fill="black"/>
    <path d="M108.692 372.606C109.638 373.556 110.68 374.428 111.693 375.308C112.706 376.187 113.824 377.076 114.949 377.875C117.345 379.58 119.877 381.115 122.417 382.59C123.78 383.384 125.137 384.19 126.504 384.983C126.867 385.193 126.549 385.687 126.182 385.531C123.487 384.384 120.805 383.221 118.227 381.823C115.647 380.421 113.073 378.771 110.96 376.713C109.826 375.604 108.915 374.4 108.208 372.979C108.058 372.679 108.431 372.351 108.689 372.609L108.692 372.606Z"
          fill="black"/>
    <path d="M141.942 394.77C141.132 395.107 140.126 394.904 139.294 394.744C138.463 394.585 137.587 394.375 136.755 394.107C135.025 393.55 133.365 392.823 131.715 392.065C128.376 390.536 125.219 388.643 122.062 386.773C120.31 385.735 118.545 384.719 116.923 383.482C116.761 383.358 116.844 383.03 117.076 383.116C118.736 383.731 120.259 384.617 121.769 385.531C123.336 386.483 124.901 387.442 126.49 388.36C129.612 390.16 132.808 391.832 136.271 392.874C137.233 393.164 138.208 393.422 139.189 393.632C139.654 393.734 140.135 393.785 140.6 393.894C141.065 394.002 141.597 394.149 141.986 394.4C142.142 394.502 142.094 394.7 141.938 394.767L141.942 394.77Z"
          fill="black"/>
    <path d="M149.656 401.275C147.719 401.164 145.795 400.638 143.944 400.077C142.093 399.517 140.108 398.784 138.232 398.042C136.356 397.299 134.521 396.356 132.717 395.413C130.917 394.47 129.149 393.476 127.388 392.463C126.422 391.909 125.46 391.351 124.495 390.8C124.02 390.529 123.552 390.246 123.084 389.962C122.58 389.657 122.134 389.405 121.781 388.921C121.628 388.714 121.831 388.392 122.074 388.408C122.587 388.44 122.966 388.618 123.421 388.847C123.877 389.077 124.316 389.293 124.756 389.539C125.603 390.01 126.448 390.488 127.295 390.963C129.041 391.944 130.784 392.928 132.536 393.9C134.298 394.878 136.107 395.757 137.885 396.707C139.662 397.656 141.491 398.523 143.393 399.233C145.454 400.004 147.566 400.517 149.688 401.09C149.787 401.116 149.771 401.282 149.663 401.275H149.656Z"
          fill="black"/>
    <path d="M160.58 405.611C159.856 405.834 159.13 406.016 158.369 406.022C157.607 406.028 156.827 406.019 156.056 405.987C154.482 405.92 152.911 405.774 151.357 405.535C148.273 405.06 145.237 404.315 142.258 403.4C141.417 403.142 140.563 402.89 139.735 402.581C138.906 402.272 138.088 401.925 137.466 401.333C137.326 401.199 137.441 400.982 137.616 400.973C138.384 400.928 139.104 401.154 139.843 401.345C140.582 401.536 141.286 401.817 142.006 402.043C143.472 402.505 144.953 402.929 146.447 403.298C149.404 404.031 152.424 404.563 155.463 404.827C156.333 404.904 157.203 404.952 158.076 404.977C158.948 405.003 159.745 405.124 160.586 405.296C160.752 405.331 160.732 405.567 160.586 405.614L160.58 405.611Z"
          fill="black"/>
    <path d="M167.968 409.042C167.05 409.702 165.859 409.953 164.763 410.154C163.479 410.387 162.176 410.495 160.87 410.517C159.564 410.54 158.261 410.46 156.967 410.275C156.343 410.186 155.728 410.071 155.123 409.877C154.622 409.718 153.877 409.558 153.654 409.03C153.609 408.918 153.683 408.765 153.784 408.711C154.25 408.459 154.982 408.775 155.467 408.867C156.043 408.979 156.62 409.1 157.2 409.189C158.433 409.38 159.688 409.447 160.933 409.434C162.179 409.421 163.402 409.316 164.629 409.173C165.715 409.045 166.821 408.797 167.914 408.848C168.022 408.854 168.051 408.985 167.968 409.045V409.042Z"
          fill="black"/>
    <path d="M174.579 411.339C173.77 412.254 172.416 412.709 171.25 412.91C170.562 413.031 169.896 413.095 169.202 413.031C168.507 412.967 167.762 412.919 167.045 412.798C166.643 412.731 166.733 412.04 167.14 412.081C168.45 412.222 169.759 412.148 171.059 411.973C171.661 411.894 172.266 411.766 172.859 411.642C173.413 411.524 173.945 411.323 174.5 411.199C174.582 411.18 174.633 411.275 174.579 411.336V411.339Z"
          fill="black"/>
    <path d="M228.473 275.496C229.636 276.63 230.777 277.79 231.774 279.071C232.771 280.351 233.628 281.613 234.482 282.929C236.186 285.554 237.703 288.3 239.022 291.142C241.631 296.774 243.434 302.827 244.447 308.95C245.027 312.467 245.377 316.02 245.527 319.581C245.543 319.961 244.963 319.957 244.941 319.581C244.559 313.356 243.561 307.15 241.822 301.158C240.111 295.255 237.642 289.558 234.434 284.314C233.526 282.83 232.558 281.38 231.535 279.972C230.512 278.564 229.48 277.003 228.416 275.541C228.391 275.509 228.445 275.471 228.47 275.499L228.473 275.496Z"
          fill="black"/>
    <path d="M222.186 271.275C223.126 271.836 223.938 272.486 224.664 273.301C225.461 274.193 226.133 275.168 226.732 276.203C228.038 278.465 229.026 280.909 229.8 283.397C231.437 288.666 232.301 294.124 232.957 299.59C233.269 302.193 233.511 304.799 233.757 307.408C233.785 307.708 233.272 307.781 233.225 307.482C232.47 302.633 231.896 297.759 230.953 292.938C229.937 287.739 228.742 282.441 226.378 277.662C225.799 276.487 225.123 275.362 224.394 274.276C224.043 273.754 223.642 273.282 223.266 272.779C222.89 272.275 222.533 271.813 222.116 271.364C222.071 271.316 222.128 271.237 222.186 271.272V271.275Z"
          fill="black"/>
    <path d="M212.576 263.502C213.309 263.798 213.978 264.202 214.494 264.808C215.061 265.474 215.564 266.197 216.013 266.945C217.049 268.669 217.836 270.539 218.524 272.425C219.999 276.461 220.942 280.657 221.821 284.856C222.216 286.742 222.551 288.641 222.939 290.527C223.041 291.011 222.334 291.215 222.191 290.734C221.158 287.204 220.438 283.594 219.495 280.042C218.441 276.076 217.342 272.008 215.392 268.373C214.952 267.551 214.465 266.742 213.892 266.006C213.366 265.327 212.85 264.629 212.295 263.976C212.136 263.785 212.283 263.39 212.569 263.505L212.576 263.502Z"
          fill="black"/>
    <path d="M200.844 258.411C201.472 258.544 201.972 258.962 202.453 259.379C202.934 259.796 203.317 260.306 203.699 260.79C204.527 261.848 205.26 262.976 205.903 264.155C207.343 266.78 208.376 269.615 209.229 272.479C211.023 278.484 211.998 284.687 212.804 290.89C213.173 293.722 213.53 296.558 213.973 299.38C214.018 299.657 213.613 299.785 213.543 299.498C212.963 297.096 212.546 294.652 212.094 292.225C211.546 289.275 210.994 286.322 210.402 283.381C209.207 277.459 207.812 271.437 205.18 265.964C204.537 264.626 203.804 263.33 202.941 262.119C202.555 261.577 202.163 261.093 201.701 260.587C201.239 260.08 200.733 259.535 200.462 258.911C200.344 258.64 200.535 258.344 200.848 258.411H200.844Z"
          fill="black"/>
    <path d="M192.36 255.878C192.831 255.916 193.115 256.11 193.478 256.4C193.797 256.655 194.064 256.945 194.319 257.264C194.931 258.028 195.447 258.857 195.903 259.723C197.027 261.858 197.839 264.145 198.537 266.448C200.085 271.536 201.156 276.77 202.016 282.014C202.37 284.162 202.698 286.318 203.096 288.459C203.157 288.784 202.698 288.918 202.599 288.596C202.045 286.844 201.656 285.047 201.245 283.257C200.684 280.816 200.171 278.367 199.598 275.929C198.438 270.982 197.362 265.888 195.262 261.243C194.813 260.252 194.31 259.277 193.682 258.382C193.43 258.022 193.195 257.758 192.879 257.385C192.592 257.044 192.277 256.779 192.064 256.388C191.949 256.177 192.089 255.852 192.357 255.875L192.36 255.878Z"
          fill="black"/>
    <path d="M183.615 254.256C185.033 256.184 185.947 258.446 186.657 260.717C187.409 263.119 187.874 265.611 188.282 268.092C188.499 269.418 188.731 270.74 188.932 272.068C189.002 272.521 188.371 272.721 188.231 272.263C187.527 269.997 187.072 267.64 186.549 265.327C186.027 263.014 185.393 260.488 184.459 258.194C183.978 257.009 183.376 255.868 182.64 254.827C182.216 254.228 183.191 253.68 183.615 254.256Z"
          fill="black"/>
    <path d="M176.416 254.237C175.425 257.608 174.619 261.02 174.125 264.499C173.625 268.013 173.402 271.523 173.246 275.066C173.157 277.035 173.144 279.007 173.077 280.979C173.058 281.552 172.277 281.521 172.207 280.979C171.758 277.446 171.806 273.881 172.08 270.338C172.36 266.735 172.905 263.17 173.781 259.663C174.262 257.738 174.832 255.849 175.578 254.008C175.782 253.504 176.578 253.686 176.416 254.24V254.237Z"
          fill="black"/>
    <path d="M169.393 254.189C168.89 255.203 168.453 256.241 167.96 257.257C167.466 258.274 166.956 259.309 166.491 260.354C165.529 262.52 164.665 264.738 163.904 266.984C162.356 271.552 161.339 276.267 160.909 281.068C160.791 282.384 160.772 283.696 160.741 285.015C160.709 286.334 160.712 287.637 160.807 288.95C160.836 289.332 160.218 289.415 160.138 289.039C159.896 287.879 159.711 286.71 159.584 285.535C159.457 284.359 159.46 283.171 159.488 281.992C159.549 279.545 159.887 277.105 160.361 274.706C161.311 269.892 162.983 265.177 165.146 260.778C165.729 259.596 166.344 258.427 166.994 257.28C167.644 256.133 168.406 255.101 169.17 254.056C169.269 253.922 169.47 254.033 169.393 254.186V254.189Z"
          fill="black"/>
    <path d="M161.623 255.05C161.078 256.474 160.412 257.837 159.769 259.22C159.125 260.602 158.52 262.004 157.953 263.419C156.777 266.356 155.713 269.338 154.802 272.368C152.97 278.462 151.747 284.706 150.896 291.008C150.444 294.363 150.119 297.74 149.883 301.116C149.855 301.54 149.256 301.54 149.224 301.116C148.797 294.872 149.444 288.631 150.626 282.499C151.839 276.207 153.674 269.946 156.175 264.04C156.863 262.418 157.596 260.816 158.38 259.239C159.164 257.662 159.957 256.168 161.018 254.795C161.222 254.53 161.766 254.664 161.62 255.05H161.623Z"
          fill="black"/>
    <path d="M151.063 259.156C150.002 259.959 148.995 260.682 148.068 261.682C147.087 262.743 146.338 263.782 145.596 265.056C143.98 267.818 142.971 270.778 142.168 273.916C141.734 275.614 141.374 277.331 141.065 279.058C140.906 279.947 140.763 280.836 140.632 281.728C140.502 282.62 140.406 283.336 140.294 284.276C139.887 287.707 139.667 291.158 139.415 294.605C139.202 297.491 138.947 300.371 138.711 303.254C138.686 303.56 138.641 303.856 138.584 304.156C138.504 304.592 137.908 304.433 137.867 304.06C137.727 302.776 137.774 301.46 137.72 300.167C137.66 298.641 137.679 297.109 137.711 295.579C137.784 292.11 138.023 288.657 138.408 285.206C138.816 281.568 139.361 277.93 140.269 274.381C141.097 271.138 142.196 267.914 143.837 264.986C144.57 263.677 145.424 262.396 146.446 261.297C147.364 260.313 148.469 259.287 149.68 258.675C149.963 258.532 150.346 258.388 150.69 258.28C151.25 258.098 151.464 258.853 151.063 259.159V259.156Z"
          fill="black"/>
    <path d="M138.785 265.072C138.581 265.652 138.218 266.108 137.833 266.582C137.447 267.057 137.062 267.592 136.686 268.105C135.845 269.252 135.035 270.418 134.287 271.632C132.621 274.343 131.177 277.204 129.859 280.096C128.54 282.989 127.31 286.22 126.252 289.389C125.236 292.435 124.376 295.538 123.745 298.686C123.582 299.504 123.423 300.33 123.28 301.152C123.213 301.531 123.152 301.91 123.095 302.292C123.066 302.477 123.041 302.665 123.015 302.85C123.044 302.649 123.003 302.955 122.999 302.967C122.987 303.06 122.977 303.152 122.964 303.241C122.936 303.474 122.898 303.707 122.866 303.939C122.891 303.748 122.853 304.041 122.85 304.054C122.834 304.172 122.821 304.29 122.805 304.407C122.764 304.755 122.729 305.102 122.7 305.449C122.639 306.166 122.639 306.88 122.483 307.58C122.34 308.224 121.413 308.167 121.238 307.58C121.047 306.937 121.043 306.284 121.034 305.618C121.024 304.952 121.034 304.334 121.062 303.694C121.126 302.225 121.327 300.744 121.575 299.297C122.117 296.127 122.98 292.996 123.965 289.937C125.019 286.656 126.306 283.442 127.746 280.307C129.11 277.341 130.649 274.47 132.445 271.743C133.363 270.348 134.344 268.994 135.405 267.704C135.88 267.124 136.402 266.582 136.934 266.057C137.425 265.572 137.935 265.095 138.604 264.897C138.702 264.868 138.814 264.967 138.776 265.069L138.785 265.072Z"
          fill="black"/>
    <path d="M125.454 274.821C125.19 275.362 124.785 275.808 124.428 276.296C124.071 276.783 123.715 277.309 123.38 277.828C122.695 278.895 122.068 279.998 121.494 281.129C120.268 283.547 119.372 286.054 118.557 288.634C116.872 293.958 115.913 299.571 115.75 305.153C115.706 306.66 115.715 308.176 115.756 309.683C115.798 311.19 115.814 312.649 115.976 314.124C116.037 314.675 115.123 314.796 115.008 314.255C114.727 312.933 114.444 311.601 114.307 310.257C114.17 308.912 114.097 307.494 114.113 306.102C114.144 303.203 114.412 300.31 114.864 297.45C115.747 291.871 117.531 286.455 120.162 281.457C120.851 280.147 121.609 278.873 122.444 277.65C122.845 277.064 123.265 276.49 123.702 275.926C124.138 275.362 124.521 274.834 125.088 274.445C125.33 274.279 125.566 274.595 125.457 274.814L125.454 274.821Z"
          fill="black"/>
    <path d="M247.797 302.33C248.052 302.62 248.322 302.916 248.494 303.264C248.689 303.652 248.864 304.051 249.026 304.455C249.371 305.315 249.613 306.211 249.813 307.115C250.25 309.094 250.463 311.123 250.575 313.143C250.817 317.498 250.6 321.866 250.326 326.214C250.192 328.336 250.049 330.464 249.998 332.589C249.992 332.787 249.699 332.787 249.692 332.589C249.6 328.645 249.871 324.698 249.998 320.757C250.135 316.542 250.173 312.238 249.39 308.077C249.02 306.112 248.332 304.274 247.679 302.394C247.657 302.327 247.752 302.273 247.797 302.324V302.33Z"
          fill="black"/>
    <path d="M231.964 278.367C232.27 278.825 232.608 279.287 232.84 279.787C233.073 280.288 233.296 280.791 233.513 281.301C233.962 282.368 234.293 283.493 234.618 284.604C235.3 286.933 235.841 289.3 236.297 291.683C237.234 296.561 237.785 301.499 238.205 306.446C238.422 309.001 238.705 311.569 238.75 314.131C238.753 314.392 238.345 314.455 238.288 314.194C237.817 311.996 237.6 309.74 237.323 307.51C237.023 305.102 236.714 302.693 236.408 300.285C235.794 295.446 235.054 290.587 233.809 285.866C233.474 284.598 233.092 283.346 232.675 282.1C232.257 280.855 231.948 279.721 231.62 278.516C231.563 278.306 231.846 278.198 231.964 278.373V278.367Z"
          fill="black"/>
    <path d="M221.147 269.5C222.007 271.122 222.462 272.912 222.95 274.674C223.437 276.436 223.902 278.287 224.316 280.109C225.148 283.751 225.772 287.465 226.234 291.174C226.489 293.228 226.719 295.283 226.929 297.344C226.948 297.526 226.636 297.571 226.607 297.389C225.989 293.773 225.31 290.167 224.6 286.567C223.89 282.967 223.099 279.316 222.163 275.741C221.64 273.741 220.927 271.772 220.608 269.73C220.56 269.427 220.975 269.185 221.147 269.504V269.5Z"
          fill="black"/>
    <path d="M208.783 262.743C208.898 262.791 209.009 262.839 209.127 262.871C209.36 262.935 209.509 263.056 209.697 263.212C210 263.46 210.264 263.721 210.503 264.034C210.981 264.661 211.398 265.333 211.768 266.031C212.65 267.685 213.281 269.459 213.832 271.246C215.024 275.111 215.824 279.09 216.496 283.072C216.798 284.866 217.117 286.659 217.416 288.453C217.48 288.838 216.964 288.988 216.827 288.615C216.289 287.156 215.954 285.649 215.604 284.136C215.174 282.276 214.75 280.412 214.349 278.542C213.539 274.76 212.635 270.944 211.064 267.395C210.694 266.56 210.277 265.744 209.777 264.98C209.56 264.652 209.337 264.33 209.121 264.002C209.019 263.846 208.894 263.705 208.792 263.549C208.691 263.393 208.662 263.202 208.557 263.036C208.471 262.899 208.617 262.673 208.783 262.743Z"
          fill="black"/>
    <path d="M197.531 257.761C199.249 259.287 200.137 261.507 200.924 263.623C201.781 265.923 202.441 268.303 202.989 270.695C203.288 272.008 203.591 273.317 203.935 274.62C204.021 274.945 203.546 275.069 203.438 274.757C202.657 272.533 202.011 270.268 201.326 268.016C200.638 265.744 199.965 263.457 198.94 261.31C198.404 260.195 197.809 259.092 197.219 258.006C197.108 257.802 197.363 257.614 197.531 257.764V257.761Z"
          fill="black"/>
    <path d="M186.983 254.68C188.293 255.164 189.137 256.614 189.755 257.786C190.529 259.255 191.09 260.832 191.555 262.422C192.055 264.116 192.457 265.846 192.801 267.579C193.145 269.312 193.483 270.969 193.766 272.67C194.04 274.308 194.336 275.933 194.763 277.538C194.852 277.873 194.333 278.121 194.183 277.784C192.922 274.967 192.457 271.823 191.845 268.825C191.173 265.531 190.539 262.125 189.128 259.048C188.783 258.302 188.392 257.576 187.923 256.901C187.509 256.305 187.015 255.735 186.655 255.11C186.534 254.903 186.738 254.588 186.987 254.68H186.983Z"
          fill="black"/>
    <path d="M179.573 254.126C179.688 260.338 179.599 266.573 180.252 272.763C180.437 274.524 180.628 276.283 180.819 278.045C180.845 278.29 180.472 278.319 180.405 278.102C179.459 275.088 179.15 271.944 178.965 268.806C178.78 265.668 178.911 262.533 178.994 259.411C179.041 257.652 179.092 255.891 179.127 254.132C179.134 253.845 179.567 253.845 179.573 254.132V254.126Z"
          fill="black"/>
    <path d="M173.547 254.126C173.534 254.559 173.404 254.97 173.305 255.391C173.196 255.849 173.075 256.298 172.932 256.748C172.645 257.646 172.336 258.535 172.037 259.427C171.451 261.17 170.915 262.931 170.457 264.712C169.523 268.312 168.762 271.954 168.421 275.665C168.325 276.726 168.284 277.79 168.211 278.851C168.134 279.982 168.153 281.116 168.061 282.244C168.023 282.734 167.293 282.897 167.159 282.365C166.688 280.466 166.621 278.405 166.685 276.455C166.748 274.489 166.939 272.533 167.293 270.6C167.978 266.859 169.115 263.269 170.527 259.742C170.931 258.729 171.339 257.716 171.817 256.735C172.043 256.27 172.269 255.811 172.54 255.371C172.811 254.932 173.059 254.451 173.426 254.078C173.467 254.037 173.547 254.065 173.547 254.129V254.126Z"
          fill="black"/>
    <path d="M165.8 254.715C164.462 257.28 163.038 259.8 161.773 262.402C160.509 265.005 159.304 267.834 158.336 270.647C157.797 272.212 157.339 273.824 156.673 275.337C156.488 275.757 155.797 275.541 155.819 275.104C155.892 273.626 156.303 272.132 156.772 270.733C157.24 269.335 157.791 267.882 158.377 266.487C159.553 263.683 160.961 260.921 162.544 258.321C163.392 256.932 164.271 255.588 165.268 254.304C165.513 253.986 165.972 254.39 165.803 254.718L165.8 254.715Z"
          fill="black"/>
    <path d="M156.449 256.744C156.006 257.547 155.483 258.302 154.999 259.083C154.477 259.921 154.011 260.794 153.546 261.663C152.575 263.482 151.772 265.394 150.998 267.302C149.376 271.304 148.181 275.458 147.13 279.641C146.617 281.68 146.251 283.776 145.559 285.764C145.336 286.401 144.269 286.35 144.314 285.595C144.429 283.677 144.887 281.798 145.314 279.928C145.789 277.847 146.33 275.786 146.936 273.741C148.188 269.5 149.676 265.298 151.947 261.488C152.543 260.491 153.202 259.551 153.929 258.643C154.578 257.831 155.298 257.038 156.175 256.47C156.35 256.359 156.541 256.576 156.449 256.744Z"
          fill="black"/>
    <path d="M143.686 261.53C142.004 262.766 140.65 264.413 139.532 266.162C138.111 268.382 136.964 270.803 135.954 273.234C133.772 278.481 132.173 284.015 130.943 289.562C130.424 291.909 129.825 294.254 129.433 296.628C129.35 297.125 128.538 297.007 128.557 296.51C128.735 291.572 129.936 286.697 131.396 281.995C132.278 279.144 133.288 276.328 134.454 273.581C135.537 271.03 136.77 268.545 138.328 266.251C139.656 264.298 141.275 262.186 143.483 261.189C143.718 261.084 143.894 261.38 143.683 261.533L143.686 261.53Z"
          fill="black"/>
    <path d="M130.697 269.682C130.006 271.348 129.117 272.919 128.333 274.544C127.378 276.528 126.514 278.561 125.654 280.59C123.892 284.751 122.369 288.985 121.289 293.375C121.022 294.458 120.818 295.551 120.652 296.653C120.576 297.16 120.455 297.657 120.382 298.163C120.311 298.628 120.289 299.097 120.19 299.559C120.092 300.021 119.474 299.944 119.352 299.559C119.085 298.718 119.101 297.74 119.094 296.863C119.085 295.841 119.295 294.789 119.477 293.786C119.869 291.607 120.528 289.488 121.258 287.402C122.045 285.152 122.946 282.951 123.953 280.791C124.905 278.749 125.963 276.783 127.078 274.827C128.107 273.018 129.123 271.135 130.506 269.567C130.579 269.485 130.748 269.574 130.704 269.682H130.697Z"
          fill="black"/>
    <path d="M117.097 283.416C117.065 283.454 117.033 283.493 117.008 283.534C116.96 283.614 117.014 283.572 116.976 283.515C117.043 283.62 117.056 283.802 116.976 283.907C116.632 284.359 116.492 284.862 116.275 285.328C115.979 285.968 115.721 286.646 115.469 287.354C114.806 289.214 114.246 291.116 113.71 293.015C112.554 297.137 111.646 301.311 110.729 305.494C110.394 307.013 110.05 308.533 109.626 310.03C109.508 310.444 108.948 310.33 108.909 309.935C108.785 308.562 109.008 307.128 109.25 305.777C109.607 303.793 110.072 301.833 110.556 299.877C111.586 295.72 112.678 291.53 114.22 287.529C114.545 286.685 114.889 285.847 115.284 285.034C115.571 284.448 115.947 283.942 116.361 283.442C116.441 283.346 116.622 283.298 116.737 283.343C116.699 283.33 116.753 283.352 116.778 283.349C116.667 283.365 116.772 283.336 116.804 283.324C116.864 283.298 116.925 283.266 116.989 283.244C117.097 283.206 117.154 283.349 117.091 283.419L117.097 283.416Z"
          fill="black"/>
    <path d="M35.9456 259.134C42.1803 247.445 89.5915 266.296 120.561 278.669L116.11 284.544C105.807 280.976 71.7796 271.721 68.8773 276.035C65.9751 280.348 108.458 321.436 161.307 351.067C205.176 375.664 273.696 393.362 276.873 389.265C280.049 385.171 261.444 369.159 249.057 359.86L251.657 351.921C277.892 370.102 318.68 401.858 312.885 415.611C307.096 429.361 221.643 397.283 157.421 362.724C63.0569 311.939 29.711 270.826 35.9456 259.134Z"
          fill="#FFE378"/>
    <path d="M34.9726 258.564C36.6006 255.614 40.0954 254.699 43.2175 254.422C48.1205 253.992 53.1668 254.894 57.9487 255.9C71.7273 258.803 85.1013 263.737 98.2428 268.714C105.815 271.581 113.344 274.575 120.862 277.58C121.455 277.815 122.022 278.596 121.537 279.236C120.053 281.196 118.571 283.155 117.087 285.111C116.797 285.493 116.319 285.805 115.813 285.63C106.405 282.384 96.6372 279.88 86.8918 277.882C82.438 276.971 77.8409 276.038 73.2724 276.035C72.1192 276.035 70.7333 276.092 69.8891 276.583C69.6438 276.726 69.9942 276.5 69.87 276.468C69.8286 276.458 69.9624 277.035 69.854 276.573C69.8923 276.735 69.9241 276.895 69.9751 277.054C70.0579 277.306 70.0675 277.315 70.0803 277.341C70.1663 277.538 70.265 277.733 70.367 277.924C70.6123 278.386 70.8926 278.832 71.1825 279.268C71.944 280.415 72.8009 281.498 73.6834 282.556C76.3372 285.735 79.2458 288.708 82.2054 291.6C91.1926 300.381 100.874 308.466 110.811 316.15C123.576 326.023 136.896 335.198 150.694 343.564C163.227 351.162 176.193 357.83 189.676 363.577C202.518 369.054 215.662 373.836 228.963 378.067C239.588 381.447 250.346 384.54 261.261 386.847C264.676 387.57 268.129 388.252 271.608 388.583C272.701 388.688 273.813 388.771 274.912 388.704C275.495 388.669 275.323 388.691 275.775 388.589C275.849 388.573 276.218 388.471 276.024 388.519C276.053 388.513 276.005 388.475 276.008 388.535C276.008 388.589 276.059 388.459 276.068 388.389C276.097 388.226 276.123 388.089 276.097 387.888C276.005 387.159 275.629 386.458 275.269 385.83C274.081 383.75 272.446 381.925 270.821 380.179C266.323 375.359 261.283 371.026 256.183 366.862C253.659 364.801 251.092 362.787 248.489 360.828C248.1 360.535 247.804 360.064 247.97 359.554C248.836 356.906 249.703 354.262 250.569 351.615C250.78 350.974 251.598 350.503 252.226 350.939C266.524 360.854 280.573 371.332 293.418 383.084C298.962 388.156 304.371 393.511 308.844 399.574C311.664 403.397 314.907 408.335 314.547 413.327C313.961 421.461 303.387 420.253 297.697 419.504C284.023 417.708 270.63 413.225 257.667 408.682C239.776 402.416 222.231 395.149 204.955 387.36C186.009 378.818 167.391 369.557 149.194 359.516C130.783 349.353 112.726 338.489 95.4297 326.514C82.9063 317.842 70.7015 308.597 59.4779 298.278C52.1951 291.585 45.0844 284.381 39.5888 276.114C36.8172 271.944 33.539 266.493 34.1602 261.246C34.2717 260.3 34.5266 259.405 34.9694 258.557C35.6448 257.27 37.5913 258.411 36.9159 259.695C36.8012 259.911 36.7152 260.125 36.7694 259.991C36.6961 260.179 36.6324 260.37 36.5751 260.561C36.4413 261.029 36.3903 261.434 36.3807 261.555C36.3011 262.584 36.3807 263.46 36.5209 264.202C37.002 266.77 38.0119 268.962 39.2512 271.224C43.3704 278.743 49.3533 285.248 55.3936 291.26C65.0721 300.897 75.7637 309.508 86.7644 317.581C102.145 328.868 118.278 339.12 134.752 348.732C152.832 359.277 171.348 369.054 190.24 378.06C207.714 386.394 225.481 394.152 243.557 401.094C257.925 406.611 272.558 411.827 287.569 415.318C292.501 416.465 297.534 417.481 302.606 417.698C304.323 417.771 306.136 417.771 307.786 417.472C308.462 417.351 309.134 417.185 309.774 416.937C309.918 416.882 310.118 416.796 310.392 416.644C310.542 416.561 311.061 416.207 310.947 416.299C311.801 415.608 312.18 414.681 312.294 413.327C312.463 411.282 311.797 409.205 310.956 407.366C308.344 401.658 303.957 396.77 299.653 392.285C287.904 380.042 274.265 369.551 260.563 359.605C257.428 357.33 254.271 355.094 251.089 352.886L252.745 352.211C251.879 354.858 251.012 357.502 250.146 360.15L249.626 358.875C255.217 363.08 260.668 367.486 265.852 372.189C269.952 375.903 274.616 379.959 277.321 384.875C278.426 386.882 279.136 390.141 276.199 390.797C273.858 391.323 271.197 390.826 268.869 390.498C259.171 389.14 249.601 386.519 240.206 383.82C226.771 379.962 213.509 375.467 200.488 370.392C186.952 365.113 173.594 359.219 160.905 352.125C145.89 343.727 131.452 334.281 117.603 324.077C106.303 315.752 95.3214 306.931 85.0249 297.386C81.3931 294.022 77.8345 290.562 74.499 286.901C72.4027 284.601 70.2395 282.196 68.6657 279.494C67.796 278.003 66.8753 275.894 68.6721 274.684C69.768 273.945 71.2335 273.833 72.5142 273.785C74.5436 273.709 76.5857 273.922 78.5927 274.18C89.5264 275.579 100.358 278.507 110.894 281.683C112.741 282.241 114.583 282.817 116.405 283.445L115.131 283.964C116.615 282.005 118.097 280.046 119.581 278.089L120.257 279.746C107.169 274.515 94.063 269.297 80.7113 264.77C74.4066 262.632 68.0413 260.631 61.5741 259.035C56.5374 257.793 51.3572 256.684 46.1484 256.582C43.0996 256.521 38.6012 256.636 36.9159 259.691C36.2151 260.963 34.2654 259.825 34.9694 258.554L34.9726 258.564Z"
          fill="black"/>
    <path d="M273.548 372.743C274.501 373.466 275.517 374.116 276.409 374.916C277.508 375.9 278.594 376.897 279.674 377.904C282.169 380.239 284.612 382.638 286.932 385.149C289.251 387.659 291.659 390.485 293.74 393.374C295.623 395.984 297.34 398.752 298.528 401.753C299.452 404.082 300.236 406.911 299.516 409.396C299.436 409.676 299.337 409.95 299.232 410.221C299.127 410.492 298.726 410.396 298.78 410.097C298.882 409.533 298.907 408.975 298.914 408.405C298.917 407.797 298.945 407.198 298.894 406.586C298.783 405.305 298.452 404.044 298.025 402.833C296.996 399.905 295.361 397.201 293.593 394.668C291.596 391.807 289.35 389.121 287.005 386.544C284.66 383.967 282.338 381.603 279.891 379.245C277.913 377.337 275.829 375.543 273.985 373.508C273.8 373.307 273.615 373.109 273.424 372.912C273.344 372.829 273.453 372.67 273.551 372.746L273.548 372.743Z"
          fill="black"/>
    <path d="M288.174 398.819C288.315 400.644 287.311 402.072 285.728 402.855C283.638 403.891 281.14 404.005 278.853 403.967C275.441 403.91 272.026 403.285 268.693 402.591C264.548 401.724 260.455 400.619 256.399 399.418C251.815 398.061 247.281 396.522 242.77 394.932C238.259 393.343 233.445 391.546 228.816 389.762C224.366 388.045 219.934 386.28 215.519 384.48C211.623 382.893 207.739 381.281 203.859 379.656C200.816 378.382 197.809 377.025 194.789 375.7C193.792 375.263 192.648 374.737 191.587 374.272C191.182 374.094 190.775 373.919 190.367 373.743C190.064 373.616 189.793 373.501 189.424 373.329C189.306 373.275 189.188 373.224 189.07 373.167C189.022 373.144 188.975 373.125 188.927 373.103C188.838 373.062 188.669 372.985 188.933 373.097C188.908 373.087 188.882 373.081 188.857 373.071C188.554 372.976 188.685 372.501 188.987 372.597C189.01 372.603 189.042 372.619 189.064 372.622C188.892 372.606 189.032 372.612 189.115 372.625C189.175 372.635 189.236 372.654 189.296 372.67C189.424 372.702 189.551 372.737 189.679 372.769C190.016 372.861 190.341 372.976 190.67 373.094C191.59 373.425 192.505 373.769 193.416 374.116C196.165 375.161 198.886 376.279 201.616 377.372C205.305 378.85 208.956 380.418 212.633 381.928C216.898 383.68 221.174 385.404 225.465 387.086C230.024 388.873 234.599 390.615 239.199 392.285C243.745 393.935 248.317 395.522 252.927 396.987C257.113 398.319 261.324 399.59 265.587 400.657C269.088 401.533 272.688 402.314 276.234 402.706C278.767 402.986 281.484 403.222 283.928 402.671C285.514 402.314 287.126 401.546 287.748 399.947C287.888 399.59 288.022 399.227 288.101 398.803C288.108 398.762 288.168 398.774 288.171 398.813L288.174 398.819Z"
          fill="black"/>
    <path d="M91.1213 271.3C90.2611 271.323 89.3978 271.402 88.5504 271.281C87.5596 271.141 86.5752 270.969 85.5939 270.778C83.3862 270.354 81.2039 269.774 79.0248 269.23C76.6673 268.64 74.2683 268.159 71.879 267.729C69.6362 267.325 67.3679 267.025 65.0868 266.945C63.1467 266.875 61.1556 266.952 59.2791 267.481C58.0813 267.818 56.9344 268.36 56.0837 269.239C54.8763 270.488 54.6852 272.192 55.0707 273.852C55.6123 276.175 56.9471 278.287 58.3361 280.23C60.1807 282.811 62.3248 285.178 64.5389 287.446C67.0589 290.027 69.7063 292.48 72.4046 294.872C75.103 297.265 77.8078 299.546 80.5731 301.805C82.9497 303.745 85.3518 305.65 87.7666 307.542C89.4041 308.823 91.0703 310.081 92.6059 311.483C92.7238 311.591 92.8416 311.703 92.9563 311.814C93.0073 311.865 93.0615 311.913 93.1124 311.964C93.1953 312.047 93.2399 312.092 93.2653 312.111C93.6126 312.404 93.1124 312.901 92.7684 312.608C92.6951 312.544 92.7907 312.627 92.7397 312.592C92.711 312.573 92.6856 312.55 92.6569 312.531C92.59 312.487 92.5231 312.436 92.4562 312.388C92.2937 312.273 92.1312 312.162 91.9719 312.044C91.9178 312.002 92.0165 312.079 91.9241 312.012C91.8859 311.983 91.8509 311.958 91.8126 311.929C91.7266 311.865 91.6406 311.802 91.5546 311.738C91.3825 311.611 91.2105 311.486 91.0385 311.359C90.1464 310.706 89.264 310.043 88.3911 309.365C86.0782 307.561 83.7684 305.749 81.4842 303.91C78.7126 301.68 75.9696 299.409 73.2839 297.077C70.5983 294.745 67.7757 292.168 65.1697 289.555C62.8026 287.182 60.5184 284.706 58.4827 282.04C56.8961 279.96 55.3892 277.714 54.545 275.219C53.9397 273.432 53.7262 271.374 54.7234 269.682C56.1411 267.28 59.1899 266.515 61.7768 266.318C63.9368 266.155 66.1127 266.337 68.2535 266.624C70.627 266.942 72.9877 267.391 75.3292 267.892C77.7122 268.398 80.0856 268.94 82.4718 269.434C84.5362 269.86 86.5943 270.335 88.6778 270.673C89.5125 270.807 90.2994 271.087 91.1372 271.205C91.1914 271.211 91.1755 271.297 91.1245 271.297L91.1213 271.3Z"
          fill="black"/>
    <path d="M52.9141 262.954C51.7608 263.428 50.8146 264.273 50.0755 265.267C49.7123 265.754 49.4224 266.276 49.1166 266.799C48.8107 267.321 48.4954 267.898 48.2246 268.471C48.1736 268.58 47.992 268.503 48.0302 268.389C48.2341 267.777 48.4571 267.159 48.7375 266.576C49.0178 265.993 49.4097 265.407 49.8175 264.884C50.6076 263.865 51.5983 263.033 52.8026 262.543C53.0543 262.441 53.1626 262.849 52.9141 262.95V262.954Z"
          fill="black"/>
    <path d="M128.873 335.115C125.503 332.956 122.202 330.684 118.965 328.33C115.789 326.017 112.702 323.573 109.615 321.139C103.396 316.233 97.2637 311.216 91.0132 306.348C87.4674 303.586 83.8483 300.913 80.1655 298.335C79.9839 298.208 80.1495 297.908 80.3439 298.029C87.0468 302.289 93.3675 307.112 99.5734 312.06C105.783 317.011 111.887 322.095 118.179 326.937C121.731 329.671 125.283 332.395 128.969 334.95C129.068 335.017 128.978 335.179 128.873 335.112V335.115Z"
          fill="black"/>
    <path d="M111.409 329.888C104.837 324.816 98.0828 319.976 91.3862 315.07C84.6641 310.145 78.0312 305.073 71.6118 299.759C67.9991 296.771 64.4947 293.643 61.2101 290.297C61.0158 290.1 61.3057 289.823 61.5096 289.998C67.8335 295.471 74.2369 300.846 80.8443 305.972C87.3911 311.05 94.0686 315.956 100.593 321.063C104.257 323.93 107.898 326.826 111.482 329.795C111.533 329.837 111.463 329.929 111.412 329.888H111.409Z"
          fill="black"/>
    <path d="M262.635 102.674C264.304 104.299 265.546 106.139 266.781 107.967C268.017 109.795 269.199 111.721 270.278 113.645C272.492 117.586 274.336 121.639 275.868 125.76C279.071 134.39 280.915 143.3 281.705 152.234C282.521 161.424 282.173 170.681 280.81 179.83C279.447 188.98 277.173 197.679 273.753 206.323C270.587 214.325 266.568 222.276 260.896 229.478C260.227 230.326 259.46 231.134 258.711 231.941C258.367 232.312 257.625 231.994 257.902 231.584C262.848 224.217 267.447 216.785 270.829 208.92C274.45 200.504 276.985 191.821 278.549 183.055C280.161 174.018 280.747 164.869 280.256 155.76C279.775 146.833 278.288 137.931 275.466 129.246C272.813 121.076 268.998 113.07 263.619 105.684C262.979 104.804 262.377 103.939 261.826 103.027C261.571 102.607 262.268 102.313 262.635 102.67V102.674Z"
          fill="black"/>
    <path d="M254.905 104.027C256.512 113.474 255.859 123.229 253.938 132.621C252.078 141.712 248.752 150.604 244.216 159.149C239.679 167.695 233.93 175.901 227.233 183.631C220.446 191.464 212.705 198.821 204.25 205.686C195.706 212.62 186.486 219.133 176.549 224.943C175.336 225.651 174.065 226.301 172.804 226.961C172.173 227.291 171.405 226.545 171.981 226.162C176.69 223.044 181.508 220.015 186.173 216.861C190.837 213.707 195.223 210.523 199.509 207.173C208.086 200.471 216.009 193.286 223.026 185.637C230.043 177.988 235.953 170.124 240.806 161.746C245.65 153.385 249.261 144.61 251.476 135.648C253.759 126.414 254.453 116.998 253.784 107.623C253.698 106.423 253.595 105.225 253.499 104.024C253.445 103.336 254.793 103.374 254.901 104.024L254.905 104.027Z"
          fill="black"/>
    <path d="M263.745 106.857C264.115 111.434 265.03 115.957 266.357 120.434C267.684 124.911 269.237 129.409 270.39 133.941C271.543 138.474 272.119 142.848 272 147.38C271.897 151.401 271.469 155.417 270.763 159.404C269.32 167.529 266.744 175.538 263.155 183.288C259.538 191.107 254.932 198.712 249.257 205.831C243.768 212.719 237.352 219.332 229.763 225.034C228.848 225.722 227.843 226.353 226.867 226.993C226.632 227.146 226.313 226.912 226.523 226.738C230.043 223.826 233.532 220.87 236.769 217.781C240.006 214.692 243.23 211.218 246.084 207.754C251.85 200.757 256.684 193.331 260.498 185.634C264.312 177.936 267.133 169.969 268.824 161.867C270.515 153.766 271.34 145.129 269.591 136.88C267.694 127.933 263.613 119.265 262.824 110.185C262.727 109.074 262.824 107.963 262.923 106.852C262.959 106.462 263.709 106.462 263.738 106.852L263.745 106.857Z"
          fill="black"/>
    <path d="M258.118 108.675C259.226 111.943 259.69 115.351 260.085 118.705C260.492 122.17 260.742 125.648 260.837 129.128C261.026 136.153 260.581 143.192 259.438 150.164C258.285 157.196 256.45 164.175 253.763 170.965C251.075 177.756 247.626 184.095 243.268 190.2C238.91 196.305 233.693 201.964 227.389 206.965C226.596 207.593 225.791 208.191 224.919 208.757C224.629 208.945 224.272 208.663 224.506 208.444C225.94 207.097 227.474 205.816 228.914 204.472C230.355 203.127 231.744 201.756 233.089 200.359C235.723 197.621 238.158 194.767 240.378 191.827C244.913 185.824 248.526 179.44 251.331 172.864C254.135 166.289 256.257 159.403 257.619 152.493C258.989 145.554 259.64 138.532 259.656 131.517C259.675 124.683 258.898 117.912 258.045 111.116C257.944 110.311 257.852 109.511 257.799 108.704C257.789 108.565 258.073 108.539 258.118 108.67V108.675Z"
          fill="black"/>
    <path d="M273.741 268.041C273.926 267.831 273.999 267.685 274.228 267.535C274.41 267.417 274.598 267.305 274.786 267.2C275.143 267.003 275.48 266.773 275.812 266.534C275.843 266.512 275.958 266.426 275.828 266.525C275.894 266.474 275.961 266.42 276.028 266.369C276.108 266.308 276.191 266.251 276.274 266.194C276.433 266.079 276.251 266.216 276.379 266.114C276.462 266.044 276.548 265.977 276.627 265.907C276.914 265.662 277.182 265.397 277.433 265.117C277.554 264.983 277.669 264.843 277.784 264.703C277.873 264.594 277.78 264.709 277.765 264.728C277.8 264.684 277.831 264.639 277.866 264.591C277.921 264.515 277.978 264.438 278.029 264.359C278.242 264.046 278.434 263.721 278.606 263.387C278.682 263.234 278.759 263.081 278.825 262.925C278.841 262.89 278.857 262.855 278.87 262.82C278.95 262.638 278.803 262.985 278.876 262.801C278.911 262.712 278.946 262.625 278.982 262.536C279.115 262.176 279.23 261.807 279.326 261.434C279.421 261.061 279.491 260.704 279.552 260.338C279.561 260.281 279.603 259.962 279.574 260.201C279.587 260.102 279.6 260 279.609 259.902C279.631 259.701 279.647 259.497 279.66 259.296C279.711 258.481 279.692 257.659 279.619 256.846C279.6 256.643 279.577 256.439 279.552 256.232C279.526 256.024 279.571 256.349 279.536 256.101C279.517 255.98 279.501 255.862 279.482 255.741C279.412 255.311 279.329 254.884 279.23 254.46C279.029 253.584 278.778 252.724 278.478 251.877C278.322 251.431 278.15 250.991 277.972 250.554C277.959 250.519 277.905 250.402 277.978 250.567C277.956 250.513 277.93 250.459 277.908 250.405C277.866 250.306 277.822 250.207 277.777 250.112C277.679 249.892 277.58 249.675 277.475 249.459C277.06 248.595 276.602 247.757 276.102 246.942C275.853 246.537 275.595 246.139 275.324 245.744C275.194 245.553 275.06 245.365 274.923 245.177C274.859 245.088 274.792 244.998 274.728 244.912C274.693 244.865 274.655 244.814 274.617 244.766C274.591 244.731 274.426 244.517 274.556 244.686C273.977 243.938 273.359 243.221 272.699 242.539C272.04 241.857 271.364 241.23 270.641 240.637C270.558 240.57 270.475 240.503 270.393 240.436C270.335 240.392 270.099 240.21 270.278 240.344C270.08 240.194 269.883 240.048 269.682 239.904C269.313 239.64 268.933 239.388 268.545 239.152C268.156 238.917 267.771 238.697 267.372 238.49C267.181 238.391 266.984 238.292 266.789 238.2C266.687 238.152 266.582 238.104 266.48 238.057C266.41 238.025 266.085 237.888 266.34 237.993C265.531 237.658 264.7 237.381 263.846 237.18C263.629 237.129 263.409 237.085 263.189 237.043C263.1 237.027 263.014 237.012 262.925 236.999C262.852 236.986 262.415 236.932 262.724 236.967C262.301 236.919 261.88 236.878 261.456 236.865C261.004 236.852 260.555 236.862 260.102 236.894C259.899 236.91 259.695 236.935 259.488 236.954C259.249 236.98 259.717 236.916 259.478 236.954C259.433 236.961 259.386 236.967 259.341 236.973C259.214 236.992 259.089 237.015 258.965 237.037C258.041 237.209 257.146 237.486 256.276 237.84C256.133 237.897 256.496 237.741 256.27 237.84C256.225 237.859 256.177 237.881 256.13 237.9C256.155 237.891 255.502 238.168 255.776 238.047C255.537 238.152 255.301 238.257 255.069 238.372C254.585 238.611 254.097 238.847 253.626 239.108C253.154 239.369 252.692 239.649 252.208 239.888C251.564 240.207 251.036 239.468 251.469 238.929C252.189 238.031 253.196 237.279 254.183 236.696C255.101 236.158 256.079 235.744 257.095 235.441C258.933 234.893 260.889 234.734 262.791 234.979C266.71 235.486 270.211 237.55 273.037 240.248C275.863 242.947 278.191 246.47 279.686 250.185C281.036 253.536 281.772 257.289 281.116 260.883C280.829 262.447 280.23 263.992 279.284 265.282C278.787 265.958 278.226 266.573 277.573 267.098C276.85 267.678 276.082 268.073 275.229 268.43C275.356 268.376 275.136 268.468 275.079 268.487C275.028 268.503 274.974 268.516 274.923 268.529C274.818 268.557 274.713 268.596 274.607 268.615C274.368 268.653 274.107 268.583 273.868 268.542C273.629 268.5 273.597 268.188 273.734 268.032L273.741 268.041Z"
          fill="black"/>
    <path d="M254.314 251.026C254.267 250.781 254.184 250.535 254.197 250.287C254.209 250.054 254.241 249.819 254.254 249.586C254.276 249.14 254.27 248.697 254.238 248.251C254.228 248.14 254.219 248.025 254.206 247.913C254.193 247.78 254.228 248.047 254.206 247.917C254.2 247.869 254.19 247.821 254.184 247.773C254.149 247.56 254.101 247.346 254.044 247.139C253.993 246.958 253.935 246.776 253.872 246.598C253.859 246.566 253.754 246.298 253.802 246.413C253.843 246.512 253.715 246.225 253.69 246.174C253.518 245.82 253.311 245.479 253.088 245.155C253.034 245.078 252.98 245.002 252.925 244.925C252.846 244.814 253.04 245.065 252.954 244.96C252.925 244.925 252.897 244.887 252.865 244.852C252.731 244.689 252.588 244.53 252.441 244.377C252.158 244.081 251.849 243.813 251.53 243.555C251.419 243.466 251.683 243.67 251.568 243.584C251.517 243.549 251.469 243.511 251.419 243.476C251.339 243.418 251.256 243.361 251.176 243.304C251.001 243.182 250.82 243.068 250.638 242.959C250.252 242.727 249.851 242.513 249.446 242.319C249.255 242.227 249.064 242.141 248.87 242.058C249.099 242.157 248.848 242.052 248.762 242.016C248.637 241.969 248.51 241.921 248.382 241.873C247.497 241.551 246.586 241.309 245.659 241.137C245.436 241.096 245.213 241.058 244.99 241.026C244.932 241.016 244.878 241.01 244.821 241C245.082 241.042 244.923 241.013 244.865 241.007C244.725 240.991 244.582 240.972 244.442 240.959C243.957 240.908 243.47 240.876 242.982 240.86C242.008 240.828 241.033 240.87 240.064 240.984C240.007 240.991 239.953 241 239.895 241.007C240.211 240.972 239.915 241.007 239.864 241.013C239.736 241.032 239.612 241.051 239.484 241.067C239.22 241.105 238.956 241.147 238.694 241.198C238.175 241.296 237.672 241.43 237.162 241.561C236.652 241.692 236.139 241.787 235.636 241.924C235.164 242.055 234.578 242.287 234.202 242.345C233.756 242.412 233.173 241.937 233.524 241.462C233.842 241.029 234.272 240.736 234.715 240.443C235.114 240.178 235.512 239.914 235.951 239.723C236.926 239.299 237.958 239.019 239.007 238.84C241.186 238.474 243.413 238.525 245.588 238.872C247.567 239.187 249.583 239.802 251.307 240.838C252.871 241.778 254.372 243.119 255.149 244.804C255.598 245.776 255.856 246.805 255.891 247.878C255.911 248.452 255.84 249.025 255.729 249.586C255.675 249.857 255.598 250.124 255.509 250.386C255.394 250.723 255.197 250.949 254.955 251.201C254.767 251.399 254.372 251.316 254.318 251.032L254.314 251.026Z"
          fill="black"/>
    <path d="M243.911 239.853C244 239.681 244.086 239.506 244.163 239.324L244.073 239.649C244.086 239.293 244.223 239.025 244.354 238.7C244.475 238.404 244.564 238.095 244.663 237.792C244.851 237.219 244.956 236.715 244.985 236.167C245.042 235.052 244.835 234.001 244.392 232.975C243.455 230.806 241.646 229.002 239.578 227.821C238.979 227.476 238.352 227.19 237.74 226.878C237.128 226.565 236.456 226.345 235.819 226.062C235.332 225.845 235.634 225.179 236.067 225.148C237.476 225.036 238.989 225.536 240.209 226.199C241.429 226.862 242.608 227.754 243.589 228.776C245.472 230.736 246.855 233.392 246.708 236.171C246.67 236.922 246.539 237.693 246.275 238.401C246.122 238.805 245.912 239.191 245.679 239.554C245.434 239.936 245.102 240.201 244.787 240.526C244.335 240.994 243.631 240.401 243.914 239.85L243.911 239.853Z"
          fill="black"/>
    <path d="M227.922 236.476C227.922 236.355 227.912 236.237 227.906 236.116C227.906 236.072 227.877 235.871 227.906 236.097C227.88 235.909 227.886 235.788 227.918 235.603C227.928 235.546 227.937 235.486 227.947 235.428C227.982 235.228 227.934 235.616 227.947 235.415C227.957 235.282 227.973 235.151 227.979 235.017C227.988 234.813 227.988 234.613 227.979 234.409C227.973 234.3 227.96 234.195 227.95 234.087C227.934 233.896 227.995 234.288 227.95 234.103C227.934 234.036 227.928 233.963 227.912 233.896C227.871 233.692 227.82 233.491 227.756 233.294C227.73 233.211 227.699 233.131 227.67 233.052C227.654 233.004 227.632 232.956 227.613 232.908C227.711 233.169 227.625 232.94 227.597 232.886C227.504 232.701 227.412 232.52 227.303 232.344C227.249 232.255 227.192 232.169 227.135 232.086C227.09 232.019 226.877 231.749 227.061 231.978C226.781 231.634 226.485 231.315 226.15 231.025C226.08 230.965 226.01 230.911 225.943 230.85C225.895 230.812 225.736 230.7 225.962 230.863C225.918 230.831 225.873 230.796 225.832 230.764C225.637 230.621 225.433 230.487 225.226 230.363C224.828 230.121 224.414 229.92 223.99 229.729C223.933 229.703 223.735 229.624 224.006 229.735C223.952 229.713 223.895 229.691 223.84 229.668C223.729 229.624 223.617 229.582 223.503 229.541C223.273 229.458 223.041 229.382 222.808 229.311C222.327 229.168 221.84 229.057 221.346 228.971C221.222 228.948 221.094 228.929 220.97 228.91C220.906 228.9 220.677 228.875 220.986 228.91C220.922 228.904 220.859 228.894 220.795 228.888C220.518 228.856 220.237 228.83 219.957 228.814C219.435 228.786 218.909 228.783 218.386 228.811C218.122 228.824 217.861 228.846 217.596 228.872C217.488 228.885 217.376 228.897 217.268 228.91C217.619 228.869 217.115 228.936 217.023 228.951C216.5 229.041 215.981 229.155 215.471 229.305C215.217 229.378 214.965 229.461 214.713 229.55C214.589 229.595 214.465 229.643 214.34 229.691C214.28 229.716 214.216 229.742 214.156 229.764C214.468 229.64 214.175 229.757 214.108 229.786C213.624 230.003 213.152 230.251 212.703 230.532C212.496 230.662 212.292 230.796 212.094 230.939C212.04 230.978 211.986 231.019 211.932 231.057C211.734 231.194 212.129 230.895 211.945 231.048C211.824 231.146 211.703 231.245 211.585 231.347C211.123 231.749 210.705 232.191 210.317 232.663C210.272 232.717 210.132 232.915 210.323 232.653C210.269 232.727 210.212 232.8 210.157 232.876C210.062 233.01 209.969 233.144 209.883 233.281C209.718 233.542 209.562 233.81 209.418 234.084C209.339 234.234 209.265 234.386 209.192 234.543C209.16 234.609 209.132 234.676 209.103 234.746C209.02 234.928 209.192 234.511 209.077 234.817C208.963 235.122 208.848 235.441 208.746 235.756C208.631 236.113 208.549 236.476 208.437 236.833C208.361 237.075 208.31 237.337 208.176 237.556C208.08 237.712 207.953 237.856 207.848 238.002C207.45 238.563 206.694 238.448 206.452 237.821C206.299 237.429 206.197 237.085 206.236 236.658C206.274 236.231 206.35 235.823 206.456 235.409C206.637 234.711 206.905 234.036 207.217 233.386C207.762 232.252 208.523 231.204 209.418 230.321C211.129 228.642 213.372 227.54 215.714 227.056C218.055 226.572 220.435 226.616 222.713 227.209C224.701 227.725 226.692 228.709 228.039 230.299C229.387 231.889 230.018 233.988 229.499 236.011C229.425 236.295 229.24 236.55 229.078 236.792C228.737 237.295 227.934 237.117 227.918 236.476H227.922Z"
          fill="black"/>
    <path d="M155.507 220.828C155.625 220.754 155.743 220.713 155.768 220.678C155.797 220.637 155.813 220.477 155.835 220.433C155.889 220.321 155.966 220.248 156.064 220.175C156.319 219.99 156.682 219.808 156.912 219.706C157.59 219.407 158.38 219.353 159.116 219.289C160.467 219.174 161.824 219.267 163.162 219.496C165.889 219.961 168.508 221.095 170.805 222.628C175.323 225.641 179.19 230.484 180.031 235.963C180.27 237.531 180.292 239.111 179.999 240.675C179.866 241.392 179.662 242.103 179.397 242.784C179.241 243.189 179.044 243.578 178.833 243.957C178.655 244.278 178.457 244.492 178.113 244.632C177.935 244.705 177.925 244.728 177.741 244.83C177.413 245.011 177.011 244.782 177.002 244.406C176.995 244.106 176.858 243.75 176.976 243.38C177.078 243.055 177.225 242.737 177.336 242.412C177.546 241.8 177.753 241.198 177.89 240.564C177.954 240.271 178.008 239.974 178.056 239.678C178.066 239.621 178.075 239.56 178.085 239.5C178.132 239.203 178.066 239.72 178.094 239.42C178.113 239.242 178.132 239.066 178.145 238.888C178.19 238.299 178.193 237.703 178.155 237.114C178.136 236.817 178.107 236.524 178.069 236.231C178.097 236.445 178.037 236.04 178.027 235.967C177.999 235.791 177.964 235.613 177.929 235.438C177.801 234.82 177.636 234.211 177.435 233.616C177.339 233.329 177.234 233.045 177.119 232.765C177.097 232.708 177.075 232.653 177.049 232.596C177.123 232.771 177.005 232.494 177.002 232.485C176.928 232.316 176.852 232.15 176.772 231.984C176.508 231.427 176.211 230.882 175.893 230.353C174.603 228.219 172.704 226.215 170.725 224.749C168.601 223.176 166.345 222.041 163.828 221.411C162.43 221.06 161.225 220.91 159.75 220.955C159.011 220.977 158.463 221.047 157.81 221.162C157.377 221.239 156.991 221.197 156.609 221.2C156.399 221.2 156.198 221.229 156.01 221.105C155.972 221.079 155.924 221.012 155.883 220.997C155.8 220.961 155.685 220.997 155.583 221.016C155.481 221.035 155.405 220.898 155.507 220.837V220.828Z"
          fill="black"/>
    <path d="M177.399 233.052C177.836 232.3 178.263 231.596 178.945 231.038C179.537 230.557 180.155 230.111 180.827 229.751C182.038 229.098 183.36 228.703 184.733 228.63C187.403 228.49 189.878 229.7 191.904 231.344C194.163 233.179 195.928 235.642 197.288 238.197C198.76 240.962 199.837 243.976 200.388 247.063C200.659 248.573 200.818 250.112 200.799 251.647C200.78 253.183 200.608 254.6 199.968 255.945C199.793 256.314 199.652 256.477 199.356 256.744C199.101 256.974 198.614 256.91 198.534 256.528C198.404 255.881 198.483 255.289 198.505 254.635C198.528 253.982 198.601 253.326 198.639 252.67C198.681 251.982 198.684 251.294 198.652 250.605C198.636 250.265 198.614 249.927 198.582 249.589C198.566 249.417 198.55 249.248 198.531 249.076C198.521 248.99 198.512 248.904 198.502 248.818C198.496 248.767 198.445 248.385 198.483 248.672C198.279 247.235 197.964 245.817 197.54 244.428C197.32 243.708 197.075 242.998 196.804 242.294C196.741 242.125 196.674 241.956 196.604 241.79C196.568 241.707 196.533 241.625 196.502 241.539C196.6 241.774 196.482 241.497 196.47 241.465C196.314 241.109 196.154 240.755 195.985 240.401C195.364 239.108 194.651 237.856 193.832 236.677C193.638 236.397 193.437 236.126 193.233 235.852C193.061 235.623 193.373 236.027 193.198 235.804C193.147 235.737 193.096 235.674 193.042 235.607C192.921 235.457 192.796 235.307 192.672 235.161C192.239 234.648 191.78 234.157 191.293 233.695C191.086 233.498 190.875 233.306 190.656 233.122C190.538 233.023 190.42 232.927 190.302 232.829C190.261 232.794 190.05 232.634 190.283 232.813C190.203 232.752 190.124 232.692 190.044 232.634C189.553 232.274 189.04 231.949 188.502 231.669C188.254 231.538 187.999 231.42 187.741 231.306C188.056 231.443 187.629 231.264 187.549 231.236C187.4 231.182 187.247 231.131 187.097 231.083C186.839 231.003 186.575 230.936 186.31 230.882C186.18 230.857 186.046 230.837 185.915 230.812C185.676 230.767 186.176 230.834 185.937 230.812C185.848 230.806 185.759 230.793 185.67 230.786C185.38 230.764 185.087 230.755 184.797 230.764C184.638 230.771 184.482 230.78 184.325 230.796C184.259 230.802 184.188 230.812 184.122 230.818C184.462 230.78 184.137 230.818 184.067 230.831C183.746 230.888 183.427 230.965 183.112 231.06C182.949 231.111 182.79 231.166 182.634 231.226C182.564 231.252 182.497 231.28 182.43 231.306C182.713 231.194 182.395 231.322 182.341 231.347C181.659 231.659 181.019 232.061 180.42 232.516C180.617 232.367 180.385 232.545 180.359 232.567C180.222 232.679 180.082 232.79 179.939 232.896C179.868 232.95 179.795 233.001 179.725 233.055C179.633 233.125 179.63 233.128 179.712 233.064C179.665 233.103 179.614 233.141 179.566 233.182C179.184 233.485 178.734 233.698 178.339 233.985C177.759 234.406 177.075 233.603 177.399 233.045V233.052Z"
          fill="black"/>
    <path d="M214.35 244.823C213.455 243.632 212.652 242.399 211.576 241.357C210.499 240.315 209.291 239.493 207.906 238.821C207.275 238.515 206.736 238.302 205.981 238.069C205.631 237.961 205.274 237.865 204.914 237.786C204.736 237.747 204.554 237.709 204.376 237.677C204.293 237.661 204.213 237.649 204.13 237.636C204.063 237.626 204 237.617 203.933 237.607C204.038 237.62 204.028 237.62 203.907 237.607C203.184 237.531 202.461 237.502 201.735 237.55C201.537 237.563 201.343 237.582 201.145 237.604C201.34 237.582 201.126 237.604 201.078 237.614C200.999 237.626 200.916 237.639 200.836 237.655C200.448 237.725 200.062 237.814 199.686 237.926C198.906 238.158 198.514 238.324 197.778 238.751C197.188 239.092 195.79 239.901 195.398 238.888C195.242 238.483 195.5 237.875 195.79 237.591C196.118 237.273 196.532 237.015 196.934 236.801C197.631 236.432 198.374 236.129 199.132 235.916C202.184 235.046 205.51 235.521 208.345 236.871C209.938 237.63 211.397 238.687 212.614 239.965C213.831 241.242 214.93 242.724 215.211 244.46C215.297 244.995 214.679 245.253 214.354 244.82L214.35 244.823Z"
          fill="black"/>
    <path d="M181.647 251.641C181.596 251.507 181.552 251.373 181.472 251.252L181.772 251.485C181.24 251.399 181.02 250.561 180.819 250.14C180.58 249.64 180.293 249.178 180.003 248.707C179.42 247.757 178.908 247.037 178.07 246.266C177.633 245.868 177.436 245.712 176.936 245.397C176.728 245.266 176.518 245.145 176.302 245.033C176.177 244.97 176.053 244.912 175.929 244.852C175.922 244.852 175.766 244.779 175.868 244.823C175.98 244.871 175.734 244.769 175.712 244.763C175.228 244.578 174.737 244.463 174.231 244.368C174.189 244.361 174.011 244.339 174.224 244.364C174.173 244.358 174.122 244.352 174.072 244.348C173.95 244.339 173.833 244.329 173.712 244.323C173.434 244.31 173.157 244.317 172.88 244.339C172.81 244.345 172.74 244.352 172.67 244.358C172.788 244.345 172.746 244.345 172.654 244.361C172.495 244.39 172.335 244.419 172.179 244.457C171.87 244.53 171.574 244.629 171.278 244.734C171.278 244.734 171.102 244.804 171.201 244.763C171.3 244.721 171.042 244.836 171.016 244.845C170.873 244.912 170.73 244.986 170.589 245.062C170.261 245.241 169.933 245.432 169.618 245.632C169.153 245.929 168.5 245.773 168.181 245.346C167.885 244.947 167.824 244.227 168.267 243.883C170.398 242.233 173.221 241.59 175.811 242.475C178.213 243.297 180.176 245.107 181.44 247.286C181.803 247.91 182.058 248.598 182.256 249.293C182.434 249.911 182.785 250.981 182.157 251.431L182.39 251.131C182.374 251.259 182.396 251.411 182.396 251.539C182.393 251.991 181.794 252.029 181.647 251.641Z"
          fill="black"/>
    <path d="M146.054 215.581C148.734 213.625 152.024 215.609 153.882 217.75C155.972 220.162 157.475 223.485 157.326 226.728C157.287 227.562 157.147 228.407 156.829 229.184C156.628 229.678 156.415 230.105 156.061 230.509C155.892 230.701 155.714 230.876 155.487 231C155.392 231.051 155.29 231.092 155.191 231.137C154.831 231.293 155.417 231.048 155.067 231.188C154.99 231.22 154.92 231.248 154.844 231.277C154.296 231.471 153.63 230.844 153.85 230.283C153.891 230.175 153.949 230.067 153.984 229.958C153.936 230.102 153.958 230.006 153.984 229.923C154.051 229.703 154.149 229.499 154.261 229.299C154.404 229.041 154.548 228.776 154.675 228.509C154.694 228.47 154.796 228.251 154.723 228.416C154.65 228.582 154.758 228.327 154.774 228.282C154.828 228.136 154.876 227.983 154.917 227.833C154.955 227.69 154.99 227.547 155.019 227.403C155.035 227.33 155.045 227.257 155.061 227.183C155.112 226.919 155.045 227.384 155.073 227.107C155.14 226.438 155.124 225.778 155.054 225.113C155.032 224.896 155.086 225.297 155.048 225.081C155.035 225.001 155.022 224.918 155.006 224.839C154.975 224.66 154.939 224.485 154.901 224.31C154.822 223.953 154.723 223.603 154.611 223.255C154.56 223.093 154.503 222.93 154.446 222.771C154.411 222.679 154.376 222.583 154.341 222.491C154.321 222.443 154.22 222.191 154.264 222.3C154.312 222.417 154.216 222.188 154.197 222.15C154.162 222.07 154.127 221.994 154.089 221.914C154.009 221.745 153.926 221.576 153.84 221.411C153.5 220.751 153.101 220.13 152.662 219.531C152.544 219.369 152.744 219.63 152.62 219.477C152.566 219.413 152.515 219.346 152.464 219.283C152.349 219.146 152.232 219.009 152.114 218.878C151.878 218.62 151.629 218.371 151.371 218.136C151.254 218.031 151.132 217.929 151.011 217.83C150.983 217.804 150.951 217.782 150.919 217.757C150.925 217.76 151.066 217.865 150.973 217.798C150.89 217.737 150.808 217.677 150.725 217.616C150.47 217.438 150.209 217.269 149.935 217.116C149.775 217.027 149.616 216.947 149.45 216.871C149.246 216.775 149.543 216.896 149.387 216.845C149.31 216.82 149.234 216.788 149.154 216.763C148.842 216.657 148.517 216.562 148.192 216.492C148.115 216.476 148.039 216.463 147.959 216.45C147.864 216.434 148.004 216.457 148.01 216.457C147.966 216.45 147.918 216.447 147.873 216.444C147.714 216.431 147.555 216.431 147.392 216.431C147.067 216.431 146.739 216.425 146.427 216.479C145.869 216.575 145.592 215.915 146.048 215.581H146.054Z"
          fill="black"/>
    <path d="M260.864 267.031C262.769 264.865 265.92 264.094 268.707 264.276C271.495 264.457 274.353 265.588 276.745 267.181C279.38 268.933 281.623 271.205 283.474 273.763C285.325 276.321 286.746 279.166 287.548 282.19C288.307 285.041 288.549 288.099 287.548 290.919C287.402 291.333 287.246 291.626 286.905 291.903C286.615 292.142 286.108 292.094 286.01 291.667C285.971 291.495 285.908 291.314 285.901 291.139C285.895 290.938 285.965 290.731 286.003 290.536C286.086 290.113 286.108 289.963 286.143 289.632C286.214 288.975 286.239 288.319 286.264 287.663C286.29 287.007 286.271 286.315 286.214 285.646C286.198 285.477 286.182 285.305 286.163 285.136C286.153 285.05 286.143 284.968 286.131 284.882C286.163 285.114 286.121 284.827 286.118 284.799C286.061 284.426 285.994 284.056 285.917 283.69C285.771 282.999 285.586 282.317 285.372 281.645C285.264 281.304 285.146 280.963 285.019 280.629C284.955 280.46 284.891 280.291 284.825 280.122C284.796 280.052 284.767 279.982 284.738 279.912C284.723 279.87 284.703 279.829 284.688 279.787C284.726 279.88 284.723 279.874 284.678 279.768C284.076 278.392 283.369 277.067 282.547 275.808C282.343 275.499 282.136 275.194 281.922 274.891C281.814 274.741 281.706 274.591 281.594 274.442C281.556 274.391 281.521 274.343 281.483 274.292C281.463 274.266 281.247 273.986 281.352 274.12C280.88 273.515 280.383 272.928 279.861 272.365C279.339 271.801 278.848 271.316 278.31 270.826C278.045 270.584 277.771 270.348 277.497 270.119C277.382 270.023 277.268 269.931 277.15 269.835C277.08 269.781 277.01 269.724 276.94 269.669C276.85 269.602 276.847 269.596 276.924 269.657C276.876 269.622 276.831 269.587 276.784 269.548C275.662 268.704 274.458 267.962 273.18 267.376C273.031 267.305 272.878 267.239 272.725 267.175C272.925 267.261 272.674 267.156 272.648 267.146C272.572 267.114 272.495 267.086 272.419 267.057C272.113 266.939 271.807 266.834 271.495 266.735C270.861 266.538 270.211 266.382 269.552 266.28C269.501 266.27 269.447 266.264 269.396 266.257C269.284 266.241 269.29 266.241 269.415 266.257C269.364 266.251 269.31 266.245 269.259 266.238C269.077 266.219 268.895 266.203 268.714 266.19C268.351 266.168 267.987 266.159 267.624 266.171C267.287 266.181 266.952 266.21 266.618 266.248C266.356 266.276 266.818 266.21 266.563 266.257C266.461 266.276 266.36 266.289 266.254 266.308C266.076 266.34 265.894 266.378 265.719 266.42C265.359 266.506 265.006 266.611 264.655 266.732C264.502 266.786 264.356 266.844 264.203 266.904C263.951 267.003 264.378 266.824 264.129 266.936C263.98 267.003 263.83 267.063 263.677 267.121C263.257 267.277 263.171 267.309 262.74 267.519C262.377 267.697 262.014 267.882 261.648 268.057C260.988 268.373 260.373 267.611 260.867 267.047L260.864 267.031Z"
          fill="black"/>
    <path d="M251.07 280.613C251.14 279.679 251.073 278.848 250.99 277.93C250.889 276.85 250.818 276.044 250.589 274.983C250.098 272.715 249.347 270.689 248.292 268.717C247.754 267.71 247.142 266.751 246.457 265.84C246.298 265.623 246.53 265.932 246.432 265.805C246.39 265.751 246.346 265.697 246.304 265.642C246.218 265.534 246.132 265.429 246.043 265.324C245.868 265.117 245.689 264.913 245.505 264.715C245.145 264.33 244.769 263.96 244.37 263.616C244.176 263.447 243.979 263.288 243.775 263.132C243.969 263.282 243.724 263.094 243.654 263.046C243.542 262.966 243.431 262.887 243.319 262.81C242.918 262.543 242.494 262.301 242.057 262.097C242.003 262.071 241.949 262.049 241.895 262.023C241.758 261.953 242.14 262.113 241.917 262.033C241.806 261.991 241.697 261.947 241.589 261.909C241.369 261.832 241.146 261.765 240.92 261.708C240.707 261.654 240.49 261.625 240.273 261.581C240.124 261.549 240.547 261.603 240.312 261.587C240.267 261.587 240.219 261.577 240.175 261.574C240.034 261.561 239.897 261.552 239.757 261.549C239.499 261.542 239.238 261.549 238.98 261.571C238.919 261.577 238.862 261.587 238.802 261.59C238.719 261.6 238.754 261.596 238.907 261.574C238.859 261.581 238.811 261.587 238.763 261.596C238.642 261.619 238.524 261.641 238.403 261.667C238.12 261.73 237.843 261.81 237.569 261.905C237.432 261.953 237.298 262.004 237.164 262.058C237.397 261.963 237.218 262.036 237.164 262.062C237.078 262.103 236.992 262.141 236.906 262.183C236.326 262.469 235.785 262.823 235.265 263.212C235.472 263.056 235.163 263.291 235.077 263.358C234.991 263.425 234.893 263.489 234.803 263.553C234.749 263.591 234.698 263.629 234.644 263.67C234.463 263.804 234.701 263.626 234.533 263.756C234.134 264.069 233.672 264.171 233.182 264.238C232.908 264.276 232.541 264.123 232.573 263.776C232.605 263.428 232.675 263.056 232.828 262.721C233 262.342 233.354 262.036 233.663 261.759C234.176 261.297 234.775 260.902 235.377 260.567C236.457 259.969 237.613 259.593 238.84 259.465C240.977 259.245 243.106 260.055 244.797 261.319C246.712 262.753 248.193 264.728 249.34 266.808C250.487 268.889 251.405 271.288 251.924 273.68C252.198 274.935 252.376 276.242 252.383 277.529C252.389 278.688 252.144 279.708 251.685 280.781C251.558 281.081 251.051 280.928 251.076 280.616L251.07 280.613Z"
          fill="black"/>
    <path d="M237.301 268.755C236.74 267.971 236.186 267.159 235.491 266.484C234.758 265.77 234.175 265.308 233.255 264.84C233.137 264.779 233.019 264.725 232.898 264.668C232.898 264.668 232.748 264.601 232.837 264.639C232.939 264.684 232.751 264.604 232.729 264.594C232.5 264.505 232.264 264.422 232.028 264.349C231.792 264.276 231.547 264.215 231.305 264.161C231.19 264.136 231.075 264.113 230.961 264.091C230.894 264.078 230.559 264.027 230.741 264.053C230.241 263.986 229.731 263.967 229.228 263.983C228.973 263.989 228.718 264.005 228.463 264.027C228.406 264.034 228.09 264.072 228.288 264.043C228.151 264.062 228.017 264.085 227.88 264.11C227.367 264.206 226.877 264.4 226.37 264.502C225.835 264.607 224.784 264.454 224.803 263.728C224.822 263.001 225.605 262.514 226.204 262.326C226.698 262.17 227.205 262.055 227.718 261.982C229.9 261.663 232.12 262.007 234.083 263.027C236.045 264.046 238.021 266.13 237.992 268.567C237.989 268.956 237.508 269.042 237.301 268.755Z"
          fill="black"/>
    <path d="M229.954 263.005C229.935 262.418 229.944 261.845 229.948 261.259C229.954 260.603 229.887 260.274 229.75 259.663C229.482 258.481 228.995 257.515 228.237 256.506C226.784 254.572 224.484 253.1 222.069 252.495C221.301 252.3 220.683 252.224 219.893 252.17C219.103 252.116 218.249 252.151 217.51 251.915C217.195 251.813 217.004 251.357 217.3 251.112C217.908 250.605 218.775 250.408 219.559 250.354C220.342 250.3 221.142 250.395 221.919 250.542C223.417 250.828 224.879 251.418 226.176 252.214C228.622 253.715 230.728 256.069 231.474 258.889C231.665 259.609 231.735 260.373 231.69 261.115C231.665 261.51 231.611 261.896 231.489 262.275C231.352 262.708 231.142 263.03 230.868 263.384C230.566 263.776 229.97 263.422 229.957 263.005H229.954Z"
          fill="black"/>
    <path d="M270.47 289.953C271.289 289.405 272.312 289.154 273.28 289.014C274.185 288.88 275.096 288.816 276.011 288.861C277.756 288.947 279.451 289.374 281.035 290.109C284.141 291.556 286.546 294.251 288.187 297.211C289.98 300.444 290.968 304.102 291.226 307.781C291.484 311.461 290.958 315.147 289.493 318.508C288.792 320.113 287.811 321.589 286.613 322.869C285.415 324.15 283.86 325.173 282.166 325.845C281.755 326.007 281.321 326.116 280.891 326.214C280.461 326.313 280.216 325.743 280.598 325.517C282.095 324.628 283.328 323.723 284.558 322.49C284.845 322.203 285.122 321.904 285.39 321.598C285.523 321.445 285.654 321.289 285.781 321.133C285.823 321.082 285.969 320.891 285.848 321.047C285.922 320.948 285.998 320.849 286.071 320.751C286.556 320.082 286.973 319.371 287.362 318.645C287.556 318.282 287.734 317.915 287.9 317.539C287.938 317.456 287.973 317.371 288.008 317.288C287.906 317.523 288.053 317.176 288.072 317.128C288.149 316.937 288.222 316.743 288.292 316.549C288.582 315.749 288.814 314.93 288.999 314.102C289.095 313.675 289.174 313.248 289.244 312.818C289.26 312.726 289.273 312.63 289.289 312.538C289.295 312.49 289.302 312.445 289.308 312.397C289.343 312.165 289.292 312.538 289.308 312.391C289.337 312.168 289.362 311.942 289.385 311.716C289.471 310.855 289.509 309.992 289.502 309.129C289.496 308.265 289.442 307.342 289.34 306.456C289.33 306.36 289.318 306.265 289.305 306.169C289.299 306.121 289.292 306.074 289.286 306.026C289.311 306.223 289.289 306.058 289.286 306.007C289.254 305.781 289.219 305.551 289.181 305.325C289.107 304.895 289.028 304.471 288.932 304.044C288.744 303.19 288.512 302.346 288.235 301.515C288.094 301.097 287.945 300.686 287.785 300.279C287.75 300.189 287.715 300.103 287.68 300.017C287.661 299.973 287.645 299.931 287.626 299.887C287.693 300.049 287.632 299.903 287.613 299.861C287.524 299.657 287.435 299.453 287.339 299.25C286.989 298.495 286.594 297.759 286.154 297.048C285.931 296.691 285.699 296.341 285.457 295.997C285.345 295.841 285.23 295.688 285.116 295.535C284.985 295.363 285.183 295.621 285.1 295.516C285.071 295.481 285.046 295.446 285.017 295.411C284.94 295.315 284.864 295.22 284.784 295.124C284.278 294.512 283.727 293.939 283.134 293.41C282.988 293.279 282.838 293.152 282.688 293.028C282.621 292.974 282.554 292.919 282.484 292.865C282.484 292.865 282.315 292.735 282.411 292.808C282.497 292.875 282.354 292.763 282.338 292.754C282.016 292.515 281.688 292.285 281.353 292.069C279.98 291.186 278.741 290.677 277.106 290.364C276.638 290.275 276.45 290.25 275.972 290.208C275.539 290.173 275.106 290.157 274.673 290.16C273.768 290.167 272.895 290.275 272.009 290.387C271.793 290.415 271.576 290.447 271.359 290.485C271.108 290.533 270.869 290.517 270.611 290.517C270.305 290.517 270.225 290.125 270.461 289.969L270.47 289.953Z"
          fill="black"/>
    <path d="M147.45 225.801C147.23 225.476 146.898 225.269 146.672 224.947C146.459 224.641 146.28 224.316 146.073 224.004C145.701 223.443 145.392 223.029 144.949 222.542C144.754 222.328 144.551 222.121 144.34 221.924C144.242 221.831 144.143 221.742 144.041 221.656C143.98 221.605 143.92 221.554 143.859 221.503C143.818 221.471 143.776 221.436 143.735 221.404C143.808 221.462 143.805 221.458 143.725 221.398C143.283 221.073 142.811 220.783 142.314 220.547C142.26 220.522 141.916 220.375 142.136 220.464C142.024 220.42 141.913 220.375 141.798 220.334C141.527 220.235 141.253 220.155 140.976 220.085C140.747 220.028 140.514 219.974 140.278 219.932C140.205 219.92 139.756 219.862 140.043 219.891C139.899 219.875 139.759 219.859 139.616 219.85C139.087 219.811 138.555 219.818 138.026 219.866C137.905 219.878 137.784 219.891 137.66 219.907C137.943 219.872 137.516 219.932 137.446 219.945C137.163 219.993 136.882 220.054 136.605 220.127C136.057 220.264 135.525 220.449 134.999 220.652C134.961 220.668 134.719 220.77 134.945 220.672C134.898 220.691 134.85 220.713 134.802 220.735C134.659 220.799 134.512 220.866 134.369 220.933C134.104 221.06 133.84 221.194 133.585 221.337C133.056 221.627 132.546 221.949 132.053 222.296C131.928 222.386 131.804 222.475 131.68 222.567C131.623 222.609 131.568 222.65 131.511 222.695C131.285 222.863 131.667 222.567 131.447 222.746C131.205 222.943 130.963 223.137 130.727 223.344C130.249 223.762 129.794 224.205 129.361 224.667C129.141 224.902 128.927 225.141 128.717 225.387C128.621 225.498 128.529 225.613 128.437 225.724C128.383 225.791 128.325 225.861 128.271 225.931C128.236 225.979 128.198 226.024 128.163 226.072C128.223 225.995 128.23 225.982 128.188 226.04C127.392 227.094 126.672 228.222 126.076 229.401C125.914 229.722 125.764 230.047 125.617 230.376C125.496 230.646 125.687 230.2 125.573 230.477C125.538 230.56 125.506 230.646 125.471 230.729C125.404 230.898 125.34 231.067 125.28 231.236C125.022 231.946 124.821 232.673 124.633 233.405C124.247 234.912 124.19 236.327 123.954 237.856C123.881 238.34 123.202 238.241 123.072 237.856C122.603 236.48 122.651 234.95 122.83 233.523C123.008 232.096 123.397 230.713 123.945 229.378C125.028 226.744 126.646 224.389 128.727 222.44C132.298 219.088 137.758 216.527 142.588 218.652C143.843 219.203 144.965 220.069 145.863 221.102C146.389 221.704 146.857 222.357 147.243 223.058C147.456 223.446 147.657 223.845 147.813 224.262C147.969 224.679 147.915 225.138 148.001 225.575C148.068 225.915 147.641 226.103 147.443 225.81L147.45 225.801Z"
          fill="black"/>
    <path d="M258.809 54.1104L285.832 73.4846C293.981 79.2889 292.603 87.0821 282.369 90.2622L270.995 93.7911L258.809 54.1104Z"
          fill="#FFE378" stroke="black" stroke-width="1.05213" stroke-linecap="round" stroke-linejoin="round"/>
    <path d="M227.971 63.5817L216.476 94.7855C212.989 104.164 218.507 109.84 228.762 106.726L240.156 103.262L227.971 63.5817Z"
          fill="#FFE378" stroke="black" stroke-width="1.05213" stroke-linecap="round" stroke-linejoin="round"/>
    <path d="M255.884 39.5875C259.64 45.8752 259.937 48.3578 259.937 48.3578L274.781 96.6915L238.719 107.765L223.875 59.4313C223.875 59.4313 222.311 56.0751 222.169 49.9393L255.884 39.5875Z"
          fill="#FFE378" stroke="black" stroke-width="1.05213" stroke-linecap="round" stroke-linejoin="round"/>
    <path d="M255.885 39.5875L222.171 49.9393C222.174 50.1223 222.147 48.4545 222.198 47.3323C222.561 38.8865 229.201 22.0605 231.877 21.2388C234.553 20.417 249.497 29.4946 254.535 37.4018C255.577 39.0454 256.341 40.3506 255.885 39.5875Z"
          fill="#FFE378" stroke="black" stroke-width="1.05213" stroke-linecap="round" stroke-linejoin="round"/>
    <path d="M240.859 50.5228C249.16 47.9746 257.955 52.636 260.506 60.9367C263.055 69.2375 258.393 78.0321 250.093 80.5803C241.788 83.1285 232.994 78.4706 230.446 70.1698C227.897 61.869 232.559 53.071 240.859 50.5228ZM249.036 77.1516C255.445 75.1869 259.042 68.395 257.074 61.9899C255.106 55.5848 248.318 51.9834 241.913 53.9515C235.504 55.9197 231.91 62.7081 233.878 69.1132C235.842 75.5183 242.631 79.1163 249.039 77.1481L249.036 77.1516Z"
          fill="#FFE378" stroke="black" stroke-width="1.05213" stroke-linecap="round" stroke-linejoin="round"/>
    <path d="M233.875 69.1167C235.84 75.5218 242.628 79.1197 249.037 77.1516C255.445 75.1869 259.043 68.395 257.075 61.9899C255.107 55.5848 248.318 51.9834 241.913 53.9516C235.505 55.9197 231.91 62.7081 233.878 69.1132L233.875 69.1167Z"
          fill="#FFE378" stroke="black" stroke-width="1.05213" stroke-linecap="round" stroke-linejoin="round"/>
    <path d="M271.341 105.759L261.794 108.694C260.986 124.063 272.833 129.629 272.833 129.629C281.082 116.97 271.341 105.762 271.341 105.762V105.759Z"
          fill="#FFE378" stroke="black" stroke-width="1.05213" stroke-linecap="round" stroke-linejoin="round"/>
    <path d="M263.3 108.228L269.85 106.215C271.542 110.047 273.597 116.756 271.166 123.306C271.166 123.306 265.134 118.624 263.3 108.224V108.228Z"
          fill="#FFE378" stroke="black" stroke-width="1.05213" stroke-linecap="round" stroke-linejoin="round"/>
    <path d="M260.783 109.001L272.641 105.362L271.556 102.931L260.314 106.384L260.783 109.001Z" fill="#FFE378"
          stroke="black" stroke-width="1.05213" stroke-linecap="round" stroke-linejoin="round"/>
    <path d="M259.663 106.584L258.486 102.755C258.323 102.22 258.62 101.653 259.159 101.488L269.77 98.2315C270.305 98.0657 270.871 98.3696 271.037 98.9048L272.211 102.731L259.667 106.584H259.663Z"
          fill="#FFE378" stroke="black" stroke-width="1.05213" stroke-linecap="round" stroke-linejoin="round"/>
    <path d="M256.042 110.458L246.494 113.39C245.683 128.759 257.533 134.325 257.533 134.325C265.779 121.666 256.042 110.458 256.042 110.458Z"
          fill="#FFE378" stroke="black" stroke-width="1.05213" stroke-linecap="round" stroke-linejoin="round"/>
    <path d="M247.995 112.93L254.546 110.917C256.238 114.75 258.292 121.459 255.861 128.009C255.861 128.009 249.829 123.327 247.995 112.927V112.93Z"
          fill="#FFE378" stroke="black" stroke-width="1.05213" stroke-linecap="round" stroke-linejoin="round"/>
    <path d="M245.482 113.701L257.336 110.061L256.252 107.63L245.013 111.083L245.482 113.701Z" fill="#FFE378"
          stroke="black" stroke-width="1.05213" stroke-linecap="round" stroke-linejoin="round"/>
    <path d="M244.362 111.283L243.185 107.458C243.023 106.922 243.32 106.356 243.858 106.19L254.466 102.931C255.001 102.765 255.567 103.069 255.733 103.604L256.91 107.43L244.362 111.283Z"
          fill="#FFE378" stroke="black" stroke-width="1.05213" stroke-linecap="round" stroke-linejoin="round"/>
    <path d="M232.924 23.9147C233.076 24.2807 232.965 24.6571 232.893 25.03C232.82 25.4029 232.748 25.7551 232.672 26.1142C232.513 26.8669 232.34 27.6162 232.161 28.3655C231.809 29.8192 231.367 31.259 230.904 32.6851C229.965 35.582 229.057 38.479 228.211 41.4036C228.004 42.1218 227.838 42.8538 227.627 43.5686C227.417 44.2833 227.22 45.3607 226.384 45.5989C225.618 45.8164 225.29 44.8842 225.286 44.2833C225.283 43.5099 225.493 42.7019 225.669 41.9526C226.363 38.9866 227.406 36.1241 228.421 33.2548C228.995 31.6319 229.592 30.016 230.165 28.3966C230.441 27.6197 230.735 26.8462 231.001 26.0659C231.139 25.6653 231.267 25.2648 231.394 24.8608C231.522 24.4568 231.601 23.9596 231.954 23.6592C232.306 23.3588 232.751 23.5003 232.924 23.9147Z"
          fill="black"/>
    <path d="M267.298 63.1362C267.823 63.6127 268.476 63.9027 269.039 64.324C269.774 64.873 270.548 65.3737 271.328 65.8605C273.165 67.0069 275.009 68.1429 276.835 69.31C278.765 70.5461 280.671 71.841 282.401 73.3464C283.855 74.6102 285.302 76.0742 286.12 77.8421C286.559 78.7916 286.852 79.7964 286.859 80.8496C286.869 82.0132 286.624 83.5083 285.588 84.1885C285.015 84.5649 284.287 84.0642 284.273 83.4323C284.259 82.904 284.459 82.4586 284.628 81.9683C284.694 81.7749 284.753 81.5747 284.798 81.3744C284.818 81.2812 284.836 81.1914 284.853 81.0982C284.863 81.0533 284.867 81.0049 284.874 80.9601C284.829 81.2363 284.867 81.0153 284.874 80.9497C284.887 80.7529 284.898 80.5595 284.894 80.3662C284.894 80.2626 284.887 80.1624 284.881 80.0589C284.877 80.0071 284.843 79.717 284.86 79.8448C284.881 79.9829 284.829 79.6687 284.822 79.6307C284.805 79.5409 284.784 79.4511 284.763 79.3614C284.715 79.1576 284.649 78.9574 284.577 78.7606C284.546 78.6708 284.508 78.5845 284.473 78.4947C284.556 78.6915 284.425 78.3946 284.401 78.3462C284.304 78.1459 284.2 77.9491 284.09 77.7592C283.865 77.369 283.613 76.9961 283.344 76.637C283.33 76.6198 283.247 76.5127 283.33 76.6163C283.296 76.5749 283.265 76.53 283.23 76.4886C283.161 76.4022 283.092 76.3194 283.023 76.2365C282.864 76.0466 282.698 75.8567 282.529 75.6737C282.177 75.2939 281.797 74.9348 281.414 74.586C278.258 71.7166 274.456 69.6311 270.91 67.2451C270.037 66.6582 269.184 66.0297 268.369 65.3633C267.751 64.8557 267.267 64.1583 266.853 63.478C266.68 63.1949 267.067 62.9221 267.298 63.1327V63.1362Z"
          fill="black"/>
    <path d="M230.199 85.7607C230.542 86.0777 230.619 86.5999 230.732 87.0416C230.853 87.5144 231.001 87.9821 231.14 88.4498C231.422 89.4059 231.768 90.3438 232.103 91.2843C232.79 93.2147 233.567 95.1139 234.143 97.0832C234.425 98.0497 234.661 99.0318 234.805 100.027C234.848 100.32 234.948 100.679 234.869 100.973C234.789 101.266 234.561 101.435 234.356 101.619C234.046 101.9 233.718 102.16 233.369 102.394C231.919 103.365 230.196 103.766 228.492 103.971C227.593 104.08 226.683 104.114 225.775 104.077C225.278 104.056 224.776 104.025 224.294 103.888C223.812 103.75 223.459 103.526 223.09 103.217C222.754 102.937 222.974 102.412 223.33 102.295C223.771 102.149 224.197 102.072 224.663 102.064C225.13 102.056 225.581 102.103 226.042 102.118C226.503 102.134 226.944 102.129 227.395 102.108C227.639 102.098 227.885 102.079 228.128 102.059C228.251 102.048 228.372 102.035 228.495 102.022C228.531 102.017 228.897 101.97 228.695 101.999C229.62 101.864 230.527 101.645 231.401 101.31C231.509 101.269 231.619 101.23 231.727 101.188C231.757 101.178 232.075 101.045 231.903 101.121C232.111 101.03 232.313 100.931 232.513 100.822C232.713 100.713 232.895 100.601 233.08 100.476C233.103 100.461 233.351 100.276 233.239 100.367C233.323 100.3 233.4 100.224 233.48 100.149L233.236 100.744C232.813 96.6987 230.796 93.0614 229.889 89.1356C229.761 88.5823 229.671 88.0263 229.602 87.4625C229.538 86.9429 229.415 86.2648 229.733 85.8153C229.848 85.6516 230.048 85.6152 230.202 85.7529L230.199 85.7607Z"
          fill="black"/>
    <g clip-path="url(#clip0_710_1276)">
        <path d="M252.647 57.7429V57.7769L249.923 60.353L246.431 63.6552L243.633 66.2993V60.7071C243.633 59.891 243.988 59.151 244.559 58.613C245.132 58.0769 245.922 57.7429 246.789 57.7429H252.647Z"
              fill="#A54DF1"/>
        <path d="M254.252 66.0613C254.25 66.7853 253.958 67.5094 253.373 68.0594L249.425 71.7696L249.401 71.7476L249.388 68.2854V67.9734L249.367 63.2012H251.264C252.012 63.2012 252.691 63.4692 253.206 63.9052L253.37 64.0592C253.385 64.0732 253.4 64.0872 253.415 64.1032C253.971 64.6472 254.248 65.3553 254.25 66.0593L254.252 66.0613Z"
              fill="#7322ED"/>
        <path d="M237.316 64.4653C237.319 63.7412 237.61 63.0172 238.196 62.4672L242.144 58.757L242.167 58.779L242.18 62.2412V62.5532L242.201 67.3254H240.302C239.554 67.3254 238.875 67.0574 238.36 66.6214L238.196 66.4674C238.181 66.4534 238.166 66.4394 238.151 66.4234C237.595 65.8773 237.319 65.1713 237.316 64.4653Z"
              fill="#7322ED"/>
        <path d="M238.984 72.6856V72.6516L241.708 70.0755L245.2 66.7733L247.998 64.1292V69.7195C247.998 70.5355 247.642 71.2756 247.072 71.8136C246.499 72.3496 245.709 72.6836 244.842 72.6836H238.984V72.6856Z"
              fill="#A54DF1"/>
    </g>
    <defs>
        <clipPath id="clip0_710_1276">
            <rect width="16.9351" height="14.9427" fill="white" transform="translate(237.316 57.7429)"/>
        </clipPath>
    </defs>
</svg>
